<?xml version="1.0" encoding="UTF-8" standalone="no"?>
<svg
   xmlns:dc="http://purl.org/dc/elements/1.1/"
   xmlns:cc="http://creativecommons.org/ns#"
   xmlns:rdf="http://www.w3.org/1999/02/22-rdf-syntax-ns#"
   xmlns:svg="http://www.w3.org/2000/svg"
   xmlns="http://www.w3.org/2000/svg"
   xmlns:sodipodi="http://sodipodi.sourceforge.net/DTD/sodipodi-0.dtd"
   xmlns:inkscape="http://www.inkscape.org/namespaces/inkscape"
   width="62.663658mm"
   height="17.74098mm"
   viewBox="0 0 222.03658 62.861735"
   id="svg2"
   version="1.1"
   inkscape:version="0.91 r13725"
   sodipodi:docname="ic_ircapp_shutdown.svg">
  <sodipodi:namedview
     pagecolor="#ffffff"
     bordercolor="#666666"
     borderopacity="1"
     objecttolerance="10"
     gridtolerance="10"
     guidetolerance="10"
     inkscape:pageopacity="0"
     inkscape:pageshadow="2"
     inkscape:window-width="1288"
     inkscape:window-height="739"
     id="namedview12"
     showgrid="false"
     inkscape:zoom="3"
     inkscape:cx="90.715312"
     inkscape:cy="22.53512"
     inkscape:window-x="69"
     inkscape:window-y="-9"
     inkscape:window-maximized="1"
     inkscape:current-layer="svg2"
     fit-margin-top="0"
     fit-margin-left="0"
     fit-margin-right="0"
     fit-margin-bottom="0" />
  <defs
     id="defs4" />
  <metadata
     id="metadata7">
    <rdf:RDF>
      <cc:Work
         rdf:about="">
        <dc:format>image/svg+xml</dc:format>
        <dc:type
           rdf:resource="http://purl.org/dc/dcmitype/StillImage" />
        <dc:title></dc:title>
      </cc:Work>
    </rdf:RDF>
  </metadata>
  <g
     id="g3339"
     transform="translate(36.051812,9.5367432e-7)">
    <path
       id="path4149-72"
       style="font-style:normal;font-weight:normal;font-size:medium;line-height:125%;font-family:sans-serif;letter-spacing:-0.5px;word-spacing:-0.5px;fill:#c0c0c0;fill-opacity:1;stroke:none;stroke-width:1px;stroke-linecap:butt;stroke-linejoin:miter;stroke-opacity:1"
       d="m 32.79776,0.98673904 0,29.75999996 -6.72,0 0,-29.75999996 6.72,0 0,0 z"
       inkscape:connector-curvature="0" />
    <path
       id="path4151-1"
       style="font-style:normal;font-weight:normal;font-size:medium;line-height:125%;font-family:sans-serif;letter-spacing:-0.5px;word-spacing:-0.5px;fill:#c0c0c0;fill-opacity:1;stroke:none;stroke-width:1px;stroke-linecap:butt;stroke-linejoin:miter;stroke-opacity:1"
       d="m 47.10901,30.746739 -5.2,-11.28 -0.08,0 0,11.28 -6.72,0 0,-29.75999996 9.04,0 0.04,0 q 1.92,0 3.6,0.72000006 1.72,0.72 2.96,2 1.28,1.24 2,2.92 0.72,1.68 0.72,3.5999999 0,2.72 -1.4,4.92 -1.4,2.16 -3.68,3.32 l 5.64,12.28 -6.92,0 z"
       inkscape:connector-curvature="0" />
    <path
       id="path4153-1"
       style="font-style:normal;font-weight:normal;font-size:medium;line-height:125%;font-family:sans-serif;letter-spacing:-2.5px;word-spacing:-0.5px;fill:#c0c0c0;fill-opacity:1;stroke:none;stroke-width:1px;stroke-linecap:butt;stroke-linejoin:miter;stroke-opacity:1"
       d="m 66.58839,24.066739 q 1,0 1.84,-0.4 0.88,-0.44 1.52,-1.16 0.68,-0.72 1.04,-1.68 0.4,-0.96 0.4,-2.04 l 6.72,0 q 0,2.4 -0.84,4.56 -0.84,2.16 -2.48,3.88 -1.64,1.72 -3.76,2.64 -2.08,0.92 -4.44,0.92 l -0.04,0 q -2.36,0 -4.44,-0.92 -2.08,-0.92 -3.76,-2.64 -1.56,-1.68 -2.44,-3.76 -0.84,-2.12 -0.88,-4.44 l 0,-6.16 q 0.04,-2.4 0.88,-4.5199999 0.84,-2.12 2.44,-3.8 1.68,-1.72 3.76,-2.64 2.08,-0.92000006 4.44,-0.92000006 l 0.04,0 q 2.36,0 4.44,0.92000006 2.12,0.92 3.76,2.64 1.64,1.72 2.48,3.88 0.84,2.1599999 0.84,4.5599999 l -6.72,0 q 0,-1.08 -0.4,-2.04 -0.36,-0.9599999 -1.04,-1.6799999 -0.64,-0.72 -1.52,-1.12 -0.84,-0.44 -1.84,-0.44 -1,0 -1.88,0.44 -0.88,0.4 -1.56,1.12 -0.64,0.72 -1.04,1.6799999 -0.36,0.96 -0.36,2.04 l 0,5.8 q 0,1.08 0.36,2.04 0.4,0.96 1.04,1.68 0.68,0.72 1.56,1.16 0.88,0.4 1.88,0.4 z"
       inkscape:connector-curvature="0" />
    <path
       id="path4155-9"
       style="font-style:normal;font-variant:normal;font-weight:normal;font-stretch:normal;font-size:39.46949768px;line-height:125%;font-family:LuzSans-Light;-inkscape-font-specification:LuzSans-Light;letter-spacing:-1.25px;word-spacing:0px;fill:#c0c0c0;fill-opacity:1;stroke:none;stroke-width:1px;stroke-linecap:butt;stroke-linejoin:miter;stroke-opacity:1"
       d="m 100.94046,30.746739 -3.98642,-9.78843 -12.98548,0 -3.98641,9.78843 -1.89454,0 L 90.5205,-9.5367432e-7 l 0.0789,0 L 102.99283,30.746739 l -2.05241,0 z M 90.48103,4.8942191 l -0.0395,0 -5.76254,14.2879599 11.56457,0 L 90.481,4.8942191 Z"
       inkscape:connector-curvature="0" />
    <path
       id="path4157-40"
       style="font-style:normal;font-variant:normal;font-weight:normal;font-stretch:normal;font-size:39.46949768px;line-height:125%;font-family:LuzSans-Light;-inkscape-font-specification:LuzSans-Light;letter-spacing:-1.25px;word-spacing:0px;fill:#c0c0c0;fill-opacity:1;stroke:none;stroke-width:1px;stroke-linecap:butt;stroke-linejoin:miter;stroke-opacity:1"
       d="m 119.48935,8.8016991 q 0,1.6971899 -0.55258,3.1575599 -0.5131,1.4209 -1.57878,2.44711 -1.06567,1.02621 -2.68392,1.61825 -1.61825,0.59204 -3.7496,0.59204 l -3.90748,0 0,14.13008 -1.89454,0 0,-29.75999996 5.76255,0 q 2.13135,0 3.7496,0.59204006 1.61825,0.59205 2.68392,1.61825 1.10515,1.02621 1.61825,2.48658 0.55258,1.4209 0.55258,3.11809 z m -1.89454,0 q 0,-2.76286 -1.61825,-4.38111 -1.57878,-1.65772 -5.13103,-1.65772 l -3.82854,0 0,12.1171299 3.82854,0 q 3.55225,0 5.13103,-1.65771 1.61825,-1.65772 1.61825,-4.4205899 z"
       inkscape:connector-curvature="0" />
    <path
       id="path4159-6"
       style="font-style:normal;font-variant:normal;font-weight:normal;font-stretch:normal;font-size:39.46949768px;line-height:125%;font-family:LuzSans-Light;-inkscape-font-specification:LuzSans-Light;letter-spacing:-1.25px;word-spacing:0px;fill:#c0c0c0;fill-opacity:1;stroke:none;stroke-width:1px;stroke-linecap:butt;stroke-linejoin:miter;stroke-opacity:1"
       d="m 136.89485,8.8016991 q 0,1.6971899 -0.55257,3.1575599 -0.51311,1.4209 -1.57878,2.44711 -1.06568,1.02621 -2.68393,1.61825 -1.61825,0.59204 -3.7496,0.59204 l -3.90748,0 0,14.13008 -1.89454,0 0,-29.75999996 5.76255,0 q 2.13135,0 3.7496,0.59204006 1.61825,0.59205 2.68393,1.61825 1.10514,1.02621 1.61825,2.48658 0.55257,1.4209 0.55257,3.11809 z m -1.89454,0 q 0,-2.76286 -1.61825,-4.38111 -1.57878,-1.65772 -5.13103,-1.65772 l -3.82854,0 0,12.1171299 3.82854,0 q 3.55225,0 5.13103,-1.65771 1.61825,-1.65772 1.61825,-4.4205899 z"
       inkscape:connector-curvature="0" />
    <path
       style="opacity:0.98999999;fill:#c0c0c0;fill-opacity:1;fill-rule:evenodd;stroke:none;stroke-width:1px;stroke-linecap:butt;stroke-linejoin:miter;stroke-opacity:1"
       d="m 0,31.733739 6.61818,-25.1628999 2.89546,1.72348 3.72273,-7.30758006 8.54849,0 -8.61743,15.02880996 -2.89547,-1.93031 z"
       id="path4138-0"
       inkscape:connector-curvature="0" />
  </g>
  <flowRoot
     xml:space="preserve"
     id="flowRoot3348"
     style="font-style:normal;font-weight:normal;font-size:40px;line-height:125%;font-family:sans-serif;letter-spacing:0px;word-spacing:0px;fill:#000000;fill-opacity:1;stroke:none;stroke-width:1px;stroke-linecap:butt;stroke-linejoin:miter;stroke-opacity:1"
     transform="translate(38.115313,-27.207133)"><flowRegion
       id="flowRegion3350"><rect
         id="rect3352"
         width="203.28198"
         height="82.411613"
         x="-1.3735269"
         y="46.842537" /></flowRegion><flowPara
       id="flowPara3354" /></flowRoot>  <g
     transform="translate(38.115313,-27.207132)"
     style="font-style:normal;font-weight:normal;font-size:40px;line-height:125%;font-family:sans-serif;text-align:center;letter-spacing:0px;word-spacing:0px;text-anchor:middle;opacity:0.87000002;fill:#000000;fill-opacity:1;stroke:none;stroke-width:1px;stroke-linecap:butt;stroke-linejoin:miter;stroke-opacity:1"
     id="flowRoot3356">
    <path
       d="m -38.115313,86.078867 0,-11.31 1.83,0 0,11.31 -1.83,0 z"
       style="font-style:normal;font-variant:normal;font-weight:normal;font-stretch:normal;font-size:15px;font-family:LuzSans-Medium;-inkscape-font-specification:LuzSans-Medium;text-align:center;text-anchor:middle"
       id="path3350" />
    <path
       d="m -28.790234,86.078867 -3.33,-4.845 -0.21,0 0,4.845 -1.83,0 0,-11.31 2.91,0 q 1.92,0 2.88,0.87 0.96,0.87 0.96,2.37 0,1.185 -0.735,2.04 -0.735,0.84 -2.1,1.035 l 3.585,4.995 -2.13,0 z m -0.51,-7.98 q 0,-0.915 -0.57,-1.38 -0.57,-0.48 -1.89,-0.48 l -0.57,0 0,3.705 0.75,0 q 1.125,0 1.695,-0.48 0.585,-0.495 0.585,-1.365 z"
       style="font-style:normal;font-variant:normal;font-weight:normal;font-stretch:normal;font-size:15px;font-family:LuzSans-Medium;-inkscape-font-specification:LuzSans-Medium;text-align:center;text-anchor:middle"
       id="path3352" />
    <path
       d="m -17.084141,85.328867 q -0.75,0.465 -1.53,0.72 -0.78,0.24 -1.62,0.24 -1.365,0 -2.475,-0.45 -1.11,-0.465 -1.89,-1.26 -0.78,-0.81 -1.215,-1.875 -0.42,-1.08 -0.42,-2.295 0,-1.215 0.42,-2.28 0.435,-1.065 1.215,-1.86 0.78,-0.81 1.875,-1.26 1.11,-0.465 2.445,-0.465 0.9,0 1.71,0.27 0.81,0.255 1.485,0.735 l 0,2.085 -0.03,0.015 q -0.555,-0.66 -1.41,-1.02 -0.855,-0.375 -1.755,-0.375 -0.9,0 -1.65,0.315 -0.75,0.3 -1.29,0.855 -0.54,0.555 -0.855,1.32 -0.3,0.765 -0.3,1.665 0,0.885 0.315,1.65 0.315,0.765 0.87,1.335 0.57,0.57 1.32,0.9 0.765,0.315 1.635,0.315 0.405,0 0.84,-0.09 0.45,-0.105 0.855,-0.285 0.42,-0.18 0.78,-0.42 0.375,-0.255 0.645,-0.555 l 0.03,0.03 0,2.04 0,0 z"
       style="font-style:normal;font-variant:normal;font-weight:normal;font-stretch:normal;font-size:15px;font-family:LuzSans-Medium;-inkscape-font-specification:LuzSans-Medium;text-align:center;text-anchor:middle"
       id="path3354" />
    <path
       d="m -9.7123438,86.078867 0,-1.08 -0.03,0 q -0.3150002,0.585 -1.0350002,0.93 -0.72,0.345 -1.53,0.345 -0.735,0 -1.395,-0.285 -0.66,-0.285 -1.14,-0.795 -0.48,-0.525 -0.765,-1.245 -0.285,-0.72 -0.285,-1.59 0,-0.795 0.27,-1.5 0.27,-0.72 0.75,-1.245 0.495,-0.525 1.155,-0.825 0.675,-0.315 1.47,-0.315 0.795,0 1.455,0.315 0.66,0.315 1.0500002,0.9 l 0.03,0 0,-1.005 1.6950001,0 0,7.395 -1.6950001,0 z m 0.06,-3.75 q 0,-0.48 -0.1649999,-0.915 -0.1650001,-0.45 -0.4650003,-0.78 -0.3,-0.33 -0.735,-0.525 -0.435,-0.195 -0.96,-0.195 -0.54,0 -0.975,0.195 -0.42,0.195 -0.72,0.54 -0.3,0.33 -0.465,0.78 -0.15,0.45 -0.15,0.945 0,0.495 0.165,0.945 0.165,0.435 0.465,0.78 0.315,0.345 0.75,0.555 0.435,0.195 0.96,0.195 0.54,0 0.96,-0.195 0.435,-0.21 0.72,-0.555 0.3000002,-0.36 0.4500003,-0.81 0.1649999,-0.465 0.1649999,-0.96 z"
       style="font-style:normal;font-variant:normal;font-weight:normal;font-stretch:normal;font-size:15px;font-family:LuzSans-Medium;-inkscape-font-specification:LuzSans-Medium;text-align:center;text-anchor:middle"
       id="path3356" />
    <path
       d="m 1.6604687,82.283867 q 0,0.87 -0.2849999,1.605 -0.27,0.735 -0.76500005,1.26 -0.48,0.525 -1.14,0.825 -0.65999995,0.3 -1.40999995,0.3 -0.8100001,0 -1.5000001,-0.315 -0.6899999,-0.33 -1.0499999,-0.9 l -0.03,0 0,5.01 -1.725,0 0,-11.385 1.725,0 0,0.96 0.03,0 q 0.42,-0.555 1.0949999,-0.855 0.69,-0.315 1.4850001,-0.315 0.795,0 1.43999995,0.3 0.66,0.285 1.125,0.81 0.48000005,0.51 0.73500005,1.215 0.2699999,0.69 0.2699999,1.485 z m -1.61999995,0.09 q 0,-0.495 -0.165,-0.93 -0.165,-0.45 -0.48,-0.78 -0.3,-0.345 -0.71999995,-0.54 -0.4200001,-0.195 -0.9450001,-0.195 -0.525,0 -0.96,0.195 -0.42,0.195 -0.735,0.525 -0.2999999,0.33 -0.4649999,0.765 -0.165,0.435 -0.165,0.915 0,0.495 0.15,0.96 0.1499999,0.45 0.435,0.81 0.2999999,0.345 0.7199999,0.555 0.4350001,0.195 0.9900001,0.195 0.5249999,0 0.96,-0.195 0.43499995,-0.21 0.73499995,-0.555 0.315,-0.345 0.48,-0.78 0.165,-0.45 0.165,-0.945 z"
       style="font-style:normal;font-variant:normal;font-weight:normal;font-stretch:normal;font-size:15px;font-family:LuzSans-Medium;-inkscape-font-specification:LuzSans-Medium;text-align:center;text-anchor:middle"
       id="path3358" />
    <path
       d="m 10.918281,82.283867 q 0,0.87 -0.285,1.605 -0.27,0.735 -0.7649997,1.26 -0.48,0.525 -1.14,0.825 -0.66,0.3 -1.4100001,0.3 -0.81,0 -1.5,-0.315 -0.6899999,-0.33 -1.05,-0.9 l -0.03,0 0,5.01 -1.7249999,0 0,-11.385 1.7249999,0 0,0.96 0.03,0 q 0.42,-0.555 1.095,-0.855 0.69,-0.315 1.4850001,-0.315 0.795,0 1.44,0.3 0.6599999,0.285 1.125,0.81 0.4799997,0.51 0.7349997,1.215 0.27,0.69 0.27,1.485 z m -1.6199997,0.09 q 0,-0.495 -0.165,-0.93 -0.165,-0.45 -0.4800001,-0.78 -0.2999999,-0.345 -0.72,-0.54 -0.42,-0.195 -0.945,-0.195 -0.525,0 -0.96,0.195 -0.42,0.195 -0.735,0.525 -0.3,0.33 -0.465,0.765 -0.165,0.435 -0.165,0.915 0,0.495 0.15,0.96 0.15,0.45 0.435,0.81 0.3000001,0.345 0.7200001,0.555 0.435,0.195 0.9899999,0.195 0.525,0 0.96,-0.195 0.4350001,-0.21 0.735,-0.555 0.3150001,-0.345 0.4800001,-0.78 0.165,-0.45 0.165,-0.945 z"
       style="font-style:normal;font-variant:normal;font-weight:normal;font-stretch:normal;font-size:15px;font-family:LuzSans-Medium;-inkscape-font-specification:LuzSans-Medium;text-align:center;text-anchor:middle"
       id="path3360" />
    <path
       d="m 21.148984,86.078867 0,-4.26 q 0,-0.42 -0.075,-0.78 -0.06,-0.36 -0.24,-0.615 -0.165,-0.27 -0.465,-0.42 -0.3,-0.15 -0.75,-0.15 -0.435,0 -0.765,0.195 -0.315,0.18 -0.54,0.51 -0.21,0.315 -0.315,0.735 -0.105,0.42 -0.105,0.885 l 0,3.9 -1.695,0 0,-12.405 1.695,0 0,6.015 0.03,0 q 0.795,-1.215 2.325,-1.215 1.275,0 1.935,0.795 0.675,0.78 0.675,2.145 l 0,4.665 -1.71,0 z"
       style="font-style:normal;font-variant:normal;font-weight:normal;font-stretch:normal;font-size:15px;font-family:LuzSans-Medium;-inkscape-font-specification:LuzSans-Medium;text-align:center;text-anchor:middle"
       id="path3362" />
    <path
       d="m 30.482969,86.078867 0,-1.08 -0.03,0 q -0.315,0.585 -1.035,0.93 -0.72,0.345 -1.53,0.345 -0.735,0 -1.395,-0.285 -0.66,-0.285 -1.14,-0.795 -0.48,-0.525 -0.765,-1.245 -0.285,-0.72 -0.285,-1.59 0,-0.795 0.27,-1.5 0.27,-0.72 0.75,-1.245 0.495,-0.525 1.155,-0.825 0.675,-0.315 1.47,-0.315 0.795,0 1.455,0.315 0.66,0.315 1.05,0.9 l 0.03,0 0,-1.005 1.695,0 0,7.395 -1.695,0 z m 0.06,-3.75 q 0,-0.48 -0.165,-0.915 -0.165,-0.45 -0.465,-0.78 -0.3,-0.33 -0.735,-0.525 -0.435,-0.195 -0.96,-0.195 -0.54,0 -0.975,0.195 -0.42,0.195 -0.72,0.54 -0.3,0.33 -0.465,0.78 -0.15,0.45 -0.15,0.945 0,0.495 0.165,0.945 0.165,0.435 0.465,0.78 0.315,0.345 0.75,0.555 0.435,0.195 0.96,0.195 0.54,0 0.96,-0.195 0.435,-0.21 0.72,-0.555 0.3,-0.36 0.45,-0.81 0.165,-0.465 0.165,-0.96 z"
       style="font-style:normal;font-variant:normal;font-weight:normal;font-stretch:normal;font-size:15px;font-family:LuzSans-Medium;-inkscape-font-specification:LuzSans-Medium;text-align:center;text-anchor:middle"
       id="path3364" />
    <path
       d="m 39.005781,83.798867 q 0,0.555 -0.225,1.02 -0.21,0.45 -0.6,0.78 -0.375,0.33 -0.885,0.495 -0.51,0.18 -1.095,0.18 -0.9,0 -1.665,-0.36 -0.75,-0.36 -1.245,-1.005 l 0.84,-1.02 q 0.345,0.45 0.885,0.765 0.555,0.315 1.155,0.315 0.57,0 0.885,-0.3 0.315,-0.3 0.315,-0.72 0,-0.36 -0.27,-0.57 -0.255,-0.21 -0.645,-0.375 -0.39,-0.18 -0.84,-0.345 -0.45,-0.165 -0.84,-0.405 -0.39,-0.24 -0.66,-0.615 -0.255,-0.375 -0.255,-0.96 0,-0.495 0.195,-0.9 0.195,-0.405 0.54,-0.69 0.36,-0.3 0.825,-0.45 0.48,-0.165 1.035,-0.165 0.765,0 1.29,0.225 0.525,0.225 0.96,0.615 l -0.72,1.095 q -0.3,-0.27 -0.66,-0.45 -0.36,-0.195 -0.75,-0.195 -0.495,0 -0.795,0.255 -0.285,0.255 -0.285,0.63 0,0.285 0.255,0.48 0.27,0.18 0.66,0.33 0.39,0.15 0.84,0.315 0.45,0.165 0.84,0.42 0.39,0.24 0.645,0.63 0.27,0.375 0.27,0.975 z"
       style="font-style:normal;font-variant:normal;font-weight:normal;font-stretch:normal;font-size:15px;font-family:LuzSans-Medium;-inkscape-font-specification:LuzSans-Medium;text-align:center;text-anchor:middle"
       id="path3366" />
    <path
       d="m 49.259687,83.798867 q 0,0.555 -0.225,1.02 -0.209999,0.45 -0.599999,0.78 -0.375,0.33 -0.885001,0.495 -0.51,0.18 -1.095,0.18 -0.9,0 -1.665,-0.36 -0.75,-0.36 -1.244999,-1.005 l 0.839999,-1.02 q 0.345,0.45 0.885001,0.765 0.555,0.315 1.154999,0.315 0.57,0 0.885001,-0.3 0.314999,-0.3 0.314999,-0.72 0,-0.36 -0.27,-0.57 -0.254999,-0.21 -0.645,-0.375 -0.39,-0.18 -0.84,-0.345 -0.449999,-0.165 -0.839999,-0.405 -0.390001,-0.24 -0.660001,-0.615 -0.254999,-0.375 -0.254999,-0.96 0,-0.495 0.195,-0.9 0.195,-0.405 0.54,-0.69 0.359999,-0.3 0.824999,-0.45 0.480001,-0.165 1.035,-0.165 0.765001,0 1.29,0.225 0.525,0.225 0.96,0.615 l -0.719999,1.095 q -0.300001,-0.27 -0.660001,-0.45 -0.36,-0.195 -0.75,-0.195 -0.495,0 -0.795,0.255 -0.285,0.255 -0.285,0.63 0,0.285 0.255001,0.48 0.269999,0.18 0.659999,0.33 0.39,0.15 0.840001,0.315 0.449999,0.165 0.839999,0.42 0.39,0.24 0.645001,0.63 0.269999,0.375 0.269999,0.975 z"
       style="font-style:normal;font-variant:normal;font-weight:normal;font-stretch:normal;font-size:15px;font-family:LuzSans-Medium;-inkscape-font-specification:LuzSans-Medium;text-align:center;text-anchor:middle"
       id="path3368" />
    <path
       d="m 55.660703,86.078867 0,-4.26 q 0,-0.42 -0.075,-0.78 -0.06,-0.36 -0.24,-0.615 -0.165,-0.27 -0.465,-0.42 -0.3,-0.15 -0.75,-0.15 -0.435,0 -0.765,0.195 -0.315,0.18 -0.54,0.51 -0.21,0.315 -0.315,0.735 -0.105,0.42 -0.105,0.885 l 0,3.9 -1.695,0 0,-12.405 1.695,0 0,6.015 0.03,0 q 0.795,-1.215 2.325,-1.215 1.275,0 1.935,0.795 0.675,0.78 0.675,2.145 l 0,4.665 -1.71,0 z"
       style="font-style:normal;font-variant:normal;font-weight:normal;font-stretch:normal;font-size:15px;font-family:LuzSans-Medium;-inkscape-font-specification:LuzSans-Medium;text-align:center;text-anchor:middle"
       id="path3370" />
    <path
       d="m 65.819687,82.973867 q 0,1.665 -0.885,2.49 -0.884999,0.81 -2.444999,0.81 -1.590001,0 -2.46,-0.855 -0.855001,-0.855 -0.855001,-2.445 l 0,-4.29 1.71,0 0,4.05 q 0,0.465 0.06,0.87 0.075,0.39 0.255001,0.675 0.18,0.285 0.494999,0.45 0.33,0.15 0.825001,0.15 0.494999,0 0.809999,-0.15 0.315,-0.165 0.480001,-0.45 0.18,-0.285 0.24,-0.675 0.06,-0.405 0.06,-0.87 l 0,-4.05 1.709999,0 0,4.29 0,0 z"
       style="font-style:normal;font-variant:normal;font-weight:normal;font-stretch:normal;font-size:15px;font-family:LuzSans-Medium;-inkscape-font-specification:LuzSans-Medium;text-align:center;text-anchor:middle"
       id="path3372" />
    <path
       d="m 69.713594,80.138867 0,5.94 -1.725,0 0,-5.94 -0.825,0 0,-1.455 0.825,0 0,-2.415 1.725,0 0,2.415 1.395,0 0,1.455 -1.395,0 z"
       style="font-style:normal;font-variant:normal;font-weight:normal;font-stretch:normal;font-size:15px;font-family:LuzSans-Medium;-inkscape-font-specification:LuzSans-Medium;text-align:center;text-anchor:middle"
       id="path3374" />
    <path
       d="m 77.738828,86.078867 0,-1.155 -0.03,0 q -0.36,0.63 -1.05,0.99 -0.69,0.36 -1.485,0.36 -0.81,0 -1.485,-0.285 -0.675,-0.3 -1.17,-0.81 -0.48,-0.525 -0.75,-1.23 -0.27,-0.705 -0.27,-1.53 0,-0.795 0.255,-1.515 0.27,-0.72 0.75,-1.26 0.495,-0.54 1.17,-0.855 0.675,-0.315 1.5,-0.315 0.75,0 1.425,0.33 0.69,0.315 1.125,0.9 l 0.03,0 0,-6.03 1.71,0 0,12.405 -1.725,0 z m 0.06,-3.75 q 0,-0.465 -0.165,-0.885 -0.165,-0.435 -0.48,-0.765 -0.3,-0.33 -0.72,-0.525 -0.42,-0.195 -0.93,-0.195 -0.525,0 -0.945,0.195 -0.42,0.18 -0.72,0.51 -0.285,0.315 -0.45,0.765 -0.15,0.435 -0.15,0.945 0,0.495 0.15,0.945 0.165,0.435 0.45,0.78 0.3,0.33 0.72,0.525 0.435,0.195 0.96,0.195 0.555,0 0.975,-0.195 0.42,-0.21 0.705,-0.54 0.3,-0.345 0.45,-0.795 0.15,-0.465 0.15,-0.96 z"
       style="font-style:normal;font-variant:normal;font-weight:normal;font-stretch:normal;font-size:15px;font-family:LuzSans-Medium;-inkscape-font-specification:LuzSans-Medium;text-align:center;text-anchor:middle"
       id="path3376" />
    <path
       d="m 88.824531,82.388867 q 0,0.825 -0.3,1.53 -0.285,0.705 -0.81,1.23 -0.525,0.525 -1.275,0.825 -0.75,0.3 -1.65,0.3 -0.915,0 -1.65,-0.3 -0.735,-0.3 -1.26,-0.825 -0.51,-0.525 -0.795,-1.23 -0.285,-0.705 -0.285,-1.53 0,-0.855 0.285,-1.56 0.3,-0.72 0.825,-1.245 0.525,-0.525 1.275,-0.81 0.75,-0.3 1.65,-0.3 0.93,0 1.665,0.3 0.735,0.3 1.245,0.84 0.525,0.525 0.795,1.245 0.285,0.705 0.285,1.53 z m -1.605,0 q 0,-0.495 -0.165,-0.945 -0.165,-0.45 -0.48,-0.78 -0.3,-0.345 -0.75,-0.54 -0.435,-0.21 -0.99,-0.21 -0.555,0 -1.005,0.21 -0.45,0.195 -0.765,0.54 -0.315,0.33 -0.495,0.78 -0.165,0.45 -0.165,0.945 0,0.495 0.165,0.945 0.165,0.435 0.465,0.78 0.3,0.33 0.75,0.54 0.45,0.195 1.005,0.195 0.57,0 1.02,-0.195 0.45,-0.195 0.765,-0.525 0.315,-0.345 0.48,-0.78 0.165,-0.45 0.165,-0.96 z"
       style="font-style:normal;font-variant:normal;font-weight:normal;font-stretch:normal;font-size:15px;font-family:LuzSans-Medium;-inkscape-font-specification:LuzSans-Medium;text-align:center;text-anchor:middle"
       id="path3378" />
    <path
       d="m 98.347188,86.258867 -1.065,0 -1.995,-5.085 -1.980001,5.085 -1.11,0 -3.045,-7.575 1.8,0 1.875,5.025 0.03,0 1.98,-5.13 0.915001,0 1.979999,5.13 0.03,0 1.875,-5.025 1.800003,0 -3.090002,7.575 z"
       style="font-style:normal;font-variant:normal;font-weight:normal;font-stretch:normal;font-size:15px;font-family:LuzSans-Medium;-inkscape-font-specification:LuzSans-Medium;text-align:center;text-anchor:middle"
       id="path3380" />
    <path
       d="m 107.1768,86.078867 0,-4.17 q 0,-0.39 -0.045,-0.75 -0.045,-0.375 -0.21,-0.66 -0.15,-0.3 -0.435,-0.465 -0.285,-0.18 -0.78,-0.18 -0.45,0 -0.78,0.18 -0.315,0.18 -0.54,0.495 -0.21,0.315 -0.315,0.735 -0.105,0.42 -0.105,0.9 l 0,3.915 -1.725,0 0,-7.395 1.725,0 0,1.005 0.03,0 q 0.36,-0.585 0.96,-0.9 0.6,-0.315 1.41,-0.315 1.215,0 1.86,0.765 0.66,0.75 0.66,2.145 l 0,4.695 -1.71,0 z"
       style="font-style:normal;font-variant:normal;font-weight:normal;font-stretch:normal;font-size:15px;font-family:LuzSans-Medium;-inkscape-font-specification:LuzSans-Medium;text-align:center;text-anchor:middle"
       id="path3382" />
    <path
       d="m 121.97289,85.568867 q 0,1.125 -0.3,1.95 -0.3,0.825 -0.84,1.35 -0.525,0.54 -1.26,0.795 -0.72,0.27 -1.59,0.27 -0.75,0 -1.425,-0.195 -0.66,-0.18 -1.185,-0.57 -0.51,-0.375 -0.84,-0.96 -0.33,-0.57 -0.405,-1.335 l 1.725,0 q 0.045,0.39 0.225,0.69 0.195,0.315 0.48,0.525 0.3,0.225 0.675,0.33 0.375,0.12 0.795,0.12 0.615,0 1.035,-0.21 0.435,-0.195 0.705,-0.585 0.27,-0.39 0.39,-0.945 0.12,-0.54 0.12,-1.245 l 0,-0.555 -0.03,0 q -0.315,0.585 -1.035,0.93 -0.72,0.345 -1.53,0.345 -0.735,0 -1.395,-0.285 -0.66,-0.285 -1.14,-0.795 -0.48,-0.525 -0.765,-1.245 -0.285,-0.72 -0.285,-1.59 0,-0.795 0.27,-1.5 0.27,-0.72 0.75,-1.245 0.495,-0.525 1.155,-0.825 0.675,-0.315 1.47,-0.315 0.795,0 1.455,0.315 0.66,0.315 1.05,0.9 l 0.03,0 0,-1.005 1.695,0 0,6.885 0,0 z m -1.635,-3.24 q 0,-0.48 -0.165,-0.915 -0.165,-0.45 -0.465,-0.78 -0.3,-0.33 -0.735,-0.525 -0.435,-0.195 -0.96,-0.195 -0.525,0 -0.96,0.195 -0.42,0.195 -0.72,0.54 -0.3,0.33 -0.465,0.78 -0.165,0.45 -0.165,0.945 0,0.495 0.165,0.945 0.165,0.435 0.465,0.78 0.315,0.345 0.75,0.555 0.435,0.195 0.96,0.195 0.54,0 0.96,-0.195 0.435,-0.21 0.72,-0.555 0.3,-0.36 0.45,-0.81 0.165,-0.465 0.165,-0.96 z"
       style="font-style:normal;font-variant:normal;font-weight:normal;font-stretch:normal;font-size:15px;font-family:LuzSans-Medium;-inkscape-font-specification:LuzSans-Medium;text-align:center;text-anchor:middle"
       id="path3384" />
    <path
       d="m 127.9907,80.303867 q -0.21,-0.105 -0.465,-0.165 -0.24,-0.06 -0.495,-0.06 -0.825,0 -1.2,0.645 -0.36,0.645 -0.36,1.92 l 0,3.435 -1.725,0 0,-7.395 1.725,0 0,1.095 0.03,0 q 0.6,-1.245 2.01,-1.245 0.165,0 0.315,0.03 0.15,0.03 0.315,0.075 l -0.15,1.665 0,0 z"
       style="font-style:normal;font-variant:normal;font-weight:normal;font-stretch:normal;font-size:15px;font-family:LuzSans-Medium;-inkscape-font-specification:LuzSans-Medium;text-align:center;text-anchor:middle"
       id="path3386" />
    <path
       d="m 134.66266,86.078867 0,-1.08 -0.03,0 q -0.315,0.585 -1.035,0.93 -0.72,0.345 -1.53,0.345 -0.735,0 -1.395,-0.285 -0.66,-0.285 -1.14,-0.795 -0.48,-0.525 -0.765,-1.245 -0.285,-0.72 -0.285,-1.59 0,-0.795 0.27,-1.5 0.27,-0.72 0.75,-1.245 0.495,-0.525 1.155,-0.825 0.675,-0.315 1.47,-0.315 0.795,0 1.455,0.315 0.66,0.315 1.05,0.9 l 0.03,0 0,-1.005 1.695,0 0,7.395 -1.695,0 z m 0.06,-3.75 q 0,-0.48 -0.165,-0.915 -0.165,-0.45 -0.465,-0.78 -0.3,-0.33 -0.735,-0.525 -0.435,-0.195 -0.96,-0.195 -0.54,0 -0.975,0.195 -0.42,0.195 -0.72,0.54 -0.3,0.33 -0.465,0.78 -0.15,0.45 -0.15,0.945 0,0.495 0.165,0.945 0.165,0.435 0.465,0.78 0.315,0.345 0.75,0.555 0.435,0.195 0.96,0.195 0.54,0 0.96,-0.195 0.435,-0.21 0.72,-0.555 0.3,-0.36 0.45,-0.81 0.165,-0.465 0.165,-0.96 z"
       style="font-style:normal;font-variant:normal;font-weight:normal;font-stretch:normal;font-size:15px;font-family:LuzSans-Medium;-inkscape-font-specification:LuzSans-Medium;text-align:center;text-anchor:middle"
       id="path3388" />
    <path
       d="m 143.87547,85.628867 q -0.495,0.345 -1.05,0.495 -0.54,0.15 -1.2,0.15 -0.825,0 -1.56,-0.27 -0.72,-0.285 -1.26,-0.795 -0.54,-0.525 -0.855,-1.245 -0.315,-0.72 -0.315,-1.59 0,-0.855 0.3,-1.56 0.3,-0.72 0.84,-1.23 0.54,-0.525 1.275,-0.81 0.735,-0.3 1.605,-0.3 1.29,0 2.175,0.645 l 0,1.635 q -0.345,-0.345 -0.915,-0.585 -0.555,-0.255 -1.185,-0.255 -0.525,0 -0.99,0.18 -0.45,0.18 -0.795,0.495 -0.33,0.315 -0.525,0.765 -0.18,0.45 -0.18,0.99 0,0.54 0.195,0.99 0.195,0.45 0.54,0.78 0.345,0.33 0.795,0.525 0.465,0.18 1.005,0.18 0.66,0 1.185,-0.225 0.54,-0.225 0.915,-0.6 l 0,1.635 0,0 z"
       style="font-style:normal;font-variant:normal;font-weight:normal;font-stretch:normal;font-size:15px;font-family:LuzSans-Medium;-inkscape-font-specification:LuzSans-Medium;text-align:center;text-anchor:middle"
       id="path3390" />
    <path
       d="m 146.4932,82.703867 q 0.015,0.54 0.195,0.96 0.195,0.42 0.51,0.72 0.315,0.285 0.72,0.435 0.42,0.15 0.885,0.15 0.72,0 1.23,-0.315 0.525,-0.33 0.84,-0.855 l 1.5,0.15 q -0.195,0.555 -0.57,0.99 -0.36,0.435 -0.84,0.735 -0.465,0.3 -1.035,0.45 -0.555,0.15 -1.155,0.15 -0.87,0 -1.605,-0.27 -0.735,-0.285 -1.26,-0.795 -0.51,-0.51 -0.81,-1.215 -0.285,-0.72 -0.285,-1.59 0,-0.855 0.285,-1.575 0.285,-0.72 0.795,-1.245 0.51,-0.525 1.215,-0.81 0.72,-0.3 1.575,-0.3 0.9,0 1.605,0.3 0.72,0.285 1.215,0.84 0.495,0.54 0.75,1.335 0.255,0.78 0.24,1.755 l -6,0 z m 4.35,-1.05 q -0.135,-0.84 -0.66,-1.38 -0.525,-0.54 -1.47,-0.54 -0.915,0 -1.5,0.555 -0.585,0.54 -0.705,1.365 l 4.335,0 0,0 z"
       style="font-style:normal;font-variant:normal;font-weight:normal;font-stretch:normal;font-size:15px;font-family:LuzSans-Medium;-inkscape-font-specification:LuzSans-Medium;text-align:center;text-anchor:middle"
       id="path3392" />
    <path
       d="m 155.755,80.138867 0,5.94 -1.71,0 0,-5.94 -0.87,0 0,-1.455 0.87,0 0,-2.37 q 0,-0.72 0.195,-1.245 0.21,-0.54 0.555,-0.885 0.36,-0.36 0.84,-0.525 0.48,-0.165 1.02,-0.165 0.21,0 0.48,0.06 0.285,0.045 0.465,0.135 l 0,1.515 q -0.165,-0.075 -0.36,-0.135 -0.18,-0.06 -0.39,-0.06 -0.54,0 -0.825,0.36 -0.27,0.345 -0.27,1.2 l 0,2.115 1.845,0 0,1.455 -1.845,0 z"
       style="font-style:normal;font-variant:normal;font-weight:normal;font-stretch:normal;font-size:15px;font-family:LuzSans-Medium;-inkscape-font-specification:LuzSans-Medium;text-align:center;text-anchor:middle"
       id="path3394" />
    <path
       d="m 165.16539,82.973867 q 0,1.665 -0.885,2.49 -0.885,0.81 -2.445,0.81 -1.59,0 -2.46,-0.855 -0.855,-0.855 -0.855,-2.445 l 0,-4.29 1.71,0 0,4.05 q 0,0.465 0.06,0.87 0.075,0.39 0.255,0.675 0.18,0.285 0.495,0.45 0.33,0.15 0.825,0.15 0.495,0 0.81,-0.15 0.315,-0.165 0.48,-0.45 0.18,-0.285 0.24,-0.675 0.06,-0.405 0.06,-0.87 l 0,-4.05 1.71,0 0,4.29 0,0 z"
       style="font-style:normal;font-variant:normal;font-weight:normal;font-stretch:normal;font-size:15px;font-family:LuzSans-Medium;-inkscape-font-specification:LuzSans-Medium;text-align:center;text-anchor:middle"
       id="path3396" />
    <path
       d="m 167.0793,86.078867 0,-12.405 1.725,0 0,12.405 -1.725,0 z"
       style="font-style:normal;font-variant:normal;font-weight:normal;font-stretch:normal;font-size:15px;font-family:LuzSans-Medium;-inkscape-font-specification:LuzSans-Medium;text-align:center;text-anchor:middle"
       id="path3398" />
    <path
       d="m 170.91719,86.078867 0,-12.405 1.725,0 0,12.405 -1.725,0 z"
       style="font-style:normal;font-variant:normal;font-weight:normal;font-stretch:normal;font-size:15px;font-family:LuzSans-Medium;-inkscape-font-specification:LuzSans-Medium;text-align:center;text-anchor:middle"
       id="path3400" />
    <path
       d="m 176.88156,90.068867 -1.77,0 2.055,-4.425 -3.495,-6.96 1.935,0 2.46,5.22 0.03,0 2.28,-5.22 1.83,0 -5.325,11.385 z"
       style="font-style:normal;font-variant:normal;font-weight:normal;font-stretch:normal;font-size:15px;font-family:LuzSans-Medium;-inkscape-font-specification:LuzSans-Medium;text-align:center;text-anchor:middle"
       id="path3402" />
    <path
       d="m 183.92125,85.268867 q 0,0.42 -0.315,0.735 -0.3,0.3 -0.72,0.3 -0.435,0 -0.735,-0.3 -0.3,-0.315 -0.3,-0.735 0,-0.42 0.3,-0.72 0.3,-0.315 0.735,-0.315 0.42,0 0.72,0.315 0.315,0.3 0.315,0.72 z"
       style="font-style:normal;font-variant:normal;font-weight:normal;font-stretch:normal;font-size:15px;font-family:LuzSans-Medium;-inkscape-font-specification:LuzSans-Medium;text-align:center;text-anchor:middle"
       id="path3404" />
  </g>
</svg>
