<?xml version="1.0" encoding="UTF-8" standalone="no"?>
<svg
   xmlns:dc="http://purl.org/dc/elements/1.1/"
   xmlns:cc="http://creativecommons.org/ns#"
   xmlns:rdf="http://www.w3.org/1999/02/22-rdf-syntax-ns#"
   xmlns:svg="http://www.w3.org/2000/svg"
   xmlns="http://www.w3.org/2000/svg"
   version="1.1"
   id="svg2"
   viewBox="0 0 136.89485 31.733739"
   height="8.9559669mm"
   width="38.634769mm">
  <defs
     id="defs4" />
  <metadata
     id="metadata7">
    <rdf:RDF>
      <cc:Work
         rdf:about="">
        <dc:format>image/svg+xml</dc:format>
        <dc:type
           rdf:resource="http://purl.org/dc/dcmitype/StillImage" />
        <dc:title></dc:title>
      </cc:Work>
    </rdf:RDF>
  </metadata>
  <path
     id="path4149-72"
     style="font-style:normal;font-weight:normal;font-size:medium;line-height:125%;font-family:sans-serif;letter-spacing:-0.5px;word-spacing:-0.5px;fill:#455a64;fill-opacity:1;stroke:none;stroke-width:1px;stroke-linecap:butt;stroke-linejoin:miter;stroke-opacity:1"
     d="m 32.79776,0.98673904 0,29.75999996 -6.72,0 0,-29.75999996 6.72,0 0,0 z" />
  <path
     id="path4151-1"
     style="font-style:normal;font-weight:normal;font-size:medium;line-height:125%;font-family:sans-serif;letter-spacing:-0.5px;word-spacing:-0.5px;fill:#455a64;fill-opacity:1;stroke:none;stroke-width:1px;stroke-linecap:butt;stroke-linejoin:miter;stroke-opacity:1"
     d="m 47.10901,30.746739 -5.2,-11.28 -0.08,0 0,11.28 -6.72,0 0,-29.75999996 9.04,0 0.04,0 q 1.92,0 3.6,0.72000006 1.72,0.72 2.96,2 1.28,1.24 2,2.92 0.72,1.68 0.72,3.5999999 0,2.72 -1.4,4.92 -1.4,2.16 -3.68,3.32 l 5.64,12.28 -6.92,0 z" />
  <path
     id="path4153-1"
     style="font-style:normal;font-weight:normal;font-size:medium;line-height:125%;font-family:sans-serif;letter-spacing:-2.5px;word-spacing:-0.5px;fill:#455a64;fill-opacity:1;stroke:none;stroke-width:1px;stroke-linecap:butt;stroke-linejoin:miter;stroke-opacity:1"
     d="m 66.58839,24.066739 q 1,0 1.84,-0.4 0.88,-0.44 1.52,-1.16 0.68,-0.72 1.04,-1.68 0.4,-0.96 0.4,-2.04 l 6.72,0 q 0,2.4 -0.84,4.56 -0.84,2.16 -2.48,3.88 -1.64,1.72 -3.76,2.64 -2.08,0.92 -4.44,0.92 l -0.04,0 q -2.36,0 -4.44,-0.92 -2.08,-0.92 -3.76,-2.64 -1.56,-1.68 -2.44,-3.76 -0.84,-2.12 -0.88,-4.44 l 0,-6.16 q 0.04,-2.4 0.88,-4.5199999 0.84,-2.12 2.44,-3.8 1.68,-1.72 3.76,-2.64 2.08,-0.92000006 4.44,-0.92000006 l 0.04,0 q 2.36,0 4.44,0.92000006 2.12,0.92 3.76,2.64 1.64,1.72 2.48,3.88 0.84,2.1599999 0.84,4.5599999 l -6.72,0 q 0,-1.08 -0.4,-2.04 -0.36,-0.9599999 -1.04,-1.6799999 -0.64,-0.72 -1.52,-1.12 -0.84,-0.44 -1.84,-0.44 -1,0 -1.88,0.44 -0.88,0.4 -1.56,1.12 -0.64,0.72 -1.04,1.6799999 -0.36,0.96 -0.36,2.04 l 0,5.8 q 0,1.08 0.36,2.04 0.4,0.96 1.04,1.68 0.68,0.72 1.56,1.16 0.88,0.4 1.88,0.4 z" />
  <path
     id="path4155-9"
     style="font-style:normal;font-variant:normal;font-weight:normal;font-stretch:normal;font-size:39.46949768px;line-height:125%;font-family:LuzSans-Light;-inkscape-font-specification:LuzSans-Light;letter-spacing:-1.25px;word-spacing:0px;fill:#455a64;fill-opacity:1;stroke:none;stroke-width:1px;stroke-linecap:butt;stroke-linejoin:miter;stroke-opacity:1"
     d="m 100.94046,30.746739 -3.98642,-9.78843 -12.98548,0 -3.98641,9.78843 -1.89454,0 L 90.5205,-9.5367432e-7 l 0.0789,0 L 102.99283,30.746739 l -2.05241,0 z M 90.48103,4.8942191 l -0.0395,0 -5.76254,14.2879599 11.56457,0 L 90.481,4.8942191 Z" />
  <path
     id="path4157-40"
     style="font-style:normal;font-variant:normal;font-weight:normal;font-stretch:normal;font-size:39.46949768px;line-height:125%;font-family:LuzSans-Light;-inkscape-font-specification:LuzSans-Light;letter-spacing:-1.25px;word-spacing:0px;fill:#455a64;fill-opacity:1;stroke:none;stroke-width:1px;stroke-linecap:butt;stroke-linejoin:miter;stroke-opacity:1"
     d="m 119.48935,8.8016991 q 0,1.6971899 -0.55258,3.1575599 -0.5131,1.4209 -1.57878,2.44711 -1.06567,1.02621 -2.68392,1.61825 -1.61825,0.59204 -3.7496,0.59204 l -3.90748,0 0,14.13008 -1.89454,0 0,-29.75999996 5.76255,0 q 2.13135,0 3.7496,0.59204006 1.61825,0.59205 2.68392,1.61825 1.10515,1.02621 1.61825,2.48658 0.55258,1.4209 0.55258,3.11809 z m -1.89454,0 q 0,-2.76286 -1.61825,-4.38111 -1.57878,-1.65772 -5.13103,-1.65772 l -3.82854,0 0,12.1171299 3.82854,0 q 3.55225,0 5.13103,-1.65771 1.61825,-1.65772 1.61825,-4.4205899 z" />
  <path
     id="path4159-6"
     style="font-style:normal;font-variant:normal;font-weight:normal;font-stretch:normal;font-size:39.46949768px;line-height:125%;font-family:LuzSans-Light;-inkscape-font-specification:LuzSans-Light;letter-spacing:-1.25px;word-spacing:0px;fill:#455a64;fill-opacity:1;stroke:none;stroke-width:1px;stroke-linecap:butt;stroke-linejoin:miter;stroke-opacity:1"
     d="m 136.89485,8.8016991 q 0,1.6971899 -0.55257,3.1575599 -0.51311,1.4209 -1.57878,2.44711 -1.06568,1.02621 -2.68393,1.61825 -1.61825,0.59204 -3.7496,0.59204 l -3.90748,0 0,14.13008 -1.89454,0 0,-29.75999996 5.76255,0 q 2.13135,0 3.7496,0.59204006 1.61825,0.59205 2.68393,1.61825 1.10514,1.02621 1.61825,2.48658 0.55257,1.4209 0.55257,3.11809 z m -1.89454,0 q 0,-2.76286 -1.61825,-4.38111 -1.57878,-1.65772 -5.13103,-1.65772 l -3.82854,0 0,12.1171299 3.82854,0 q 3.55225,0 5.13103,-1.65771 1.61825,-1.65772 1.61825,-4.4205899 z" />
  <path
     style="opacity:0.98999999;fill:#ffb90f;fill-opacity:1;fill-rule:evenodd;stroke:none;stroke-width:1px;stroke-linecap:butt;stroke-linejoin:miter;stroke-opacity:1"
     d="m 0,31.733739 6.61818,-25.1628999 2.89546,1.72348 3.72273,-7.30758006 8.54849,0 -8.61743,15.02880996 -2.89547,-1.93031 z"
     id="path4138-0" />
</svg>
