<?xml version="1.0" encoding="UTF-8" standalone="no"?>
<svg
   xmlns:dc="http://purl.org/dc/elements/1.1/"
   xmlns:cc="http://creativecommons.org/ns#"
   xmlns:rdf="http://www.w3.org/1999/02/22-rdf-syntax-ns#"
   xmlns:svg="http://www.w3.org/2000/svg"
   xmlns="http://www.w3.org/2000/svg"
   xmlns:sodipodi="http://sodipodi.sourceforge.net/DTD/sodipodi-0.dtd"
   xmlns:inkscape="http://www.inkscape.org/namespaces/inkscape"
   fill="#000000"
   height="24"
   viewBox="0 0 24 24"
   width="24"
   id="svg2"
   version="1.1"
   inkscape:version="0.91 r13725"
   sodipodi:docname="ic_qd_preferences_white.svg">
  <metadata
     id="metadata12">
    <rdf:RDF>
      <cc:Work
         rdf:about="">
        <dc:format>image/svg+xml</dc:format>
        <dc:type
           rdf:resource="http://purl.org/dc/dcmitype/StillImage" />
        <dc:title></dc:title>
      </cc:Work>
    </rdf:RDF>
  </metadata>
  <defs
     id="defs10" />
  <sodipodi:namedview
     pagecolor="#ffffff"
     bordercolor="#666666"
     borderopacity="1"
     objecttolerance="10"
     gridtolerance="10"
     guidetolerance="10"
     inkscape:pageopacity="0"
     inkscape:pageshadow="2"
     inkscape:window-width="1319"
     inkscape:window-height="744"
     id="namedview8"
     showgrid="false"
     inkscape:zoom="9.8333333"
     inkscape:cx="-0.50847458"
     inkscape:cy="12"
     inkscape:window-x="47"
     inkscape:window-y="24"
     inkscape:window-maximized="1"
     inkscape:current-layer="svg2" />
  <path
     d="M0 0h24v24H0z"
     fill="none"
     id="path4" />
  <path
     d="M 10.001953 2 C 9.7519528 2 9.5417188 2.1799219 9.5117188 2.4199219 L 9.1328125 5.0703125 C 8.5228125 5.3203125 7.9614063 5.6607812 7.4414062 6.0507812 L 4.953125 5.0507812 C 4.723125 4.9607813 4.4617969 5.0495313 4.3417969 5.2695312 L 2.3417969 8.7304688 C 2.2117969 8.9504688 2.2728906 9.2191406 2.4628906 9.3691406 L 4.5722656 11.019531 C 4.5322656 11.339531 4.5019531 11.67 4.5019531 12 C 4.5019531 12.33 4.5322656 12.660469 4.5722656 12.980469 L 2.4628906 14.630859 C 2.2728906 14.780859 2.2217969 15.049531 2.3417969 15.269531 L 4.3417969 18.730469 C 4.4617969 18.950469 4.733125 19.029219 4.953125 18.949219 L 7.4414062 17.949219 C 7.9614063 18.349219 8.5228125 18.679688 9.1328125 18.929688 L 9.5117188 21.580078 C 9.5417187 21.820078 9.7519528 22 10.001953 22 L 14.001953 22 C 14.251953 22 14.462187 21.820078 14.492188 21.580078 L 14.873047 18.929688 C 15.483047 18.679688 16.0425 18.339219 16.5625 17.949219 L 19.052734 18.949219 C 19.282734 19.039219 19.542109 18.950469 19.662109 18.730469 L 21.662109 15.269531 C 21.782109 15.049531 21.732969 14.780859 21.542969 14.630859 L 19.431641 12.980469 C 19.471641 12.660469 19.501953 12.34 19.501953 12 C 19.501953 11.66 19.471641 11.339531 19.431641 11.019531 L 21.542969 9.3691406 C 21.732969 9.2191406 21.782109 8.9504687 21.662109 8.7304688 L 19.662109 5.2695312 C 19.542109 5.0495313 19.272734 4.9707812 19.052734 5.0507812 L 16.5625 6.0507812 C 16.0425 5.6507812 15.483047 5.3203125 14.873047 5.0703125 L 14.492188 2.4199219 C 14.462188 2.1799219 14.251953 2 14.001953 2 L 10.001953 2 z M 12.685547 7.5 L 15.1875 7.5 L 12.666016 11.898438 L 11.818359 11.333984 L 8.8125 16.5 L 10.748047 9.1347656 L 11.595703 9.6386719 L 12.685547 7.5 z "
     id="path6" />
</svg>
