<?xml version="1.0" encoding="UTF-8" standalone="no"?>
<!-- Generator: Adobe Illustrator 15.0.2, SVG Export Plug-In . SVG Version: 6.00 Build 0)  -->

<svg
   xmlns:dc="http://purl.org/dc/elements/1.1/"
   xmlns:cc="http://creativecommons.org/ns#"
   xmlns:rdf="http://www.w3.org/1999/02/22-rdf-syntax-ns#"
   xmlns:svg="http://www.w3.org/2000/svg"
   xmlns="http://www.w3.org/2000/svg"
   xmlns:sodipodi="http://sodipodi.sourceforge.net/DTD/sodipodi-0.dtd"
   xmlns:inkscape="http://www.inkscape.org/namespaces/inkscape"
   version="1.1"
   id="svg2"
   sodipodi:version="0.32"
   inkscape:version="0.91 r13725"
   sodipodi:docname="ic_python_gray.svg"
   x="0px"
   y="0px"
   width="440.615px"
   height="118.655px"
   viewBox="5.591 3.262 440.615 118.655"
   enable-background="new 5.591 3.262 440.615 118.655"
   xml:space="preserve"><metadata
     id="metadata24"><rdf:RDF><cc:Work
         rdf:about=""><dc:format>image/svg+xml</dc:format><dc:type
           rdf:resource="http://purl.org/dc/dcmitype/StillImage" /><dc:title></dc:title></cc:Work></rdf:RDF></metadata><defs
     id="defs22" /><sodipodi:namedview
     units="mm"
     width="210mm"
     height="40mm"
     id="base"
     inkscape:current-layer="svg2"
     inkscape:window-y="24"
     inkscape:window-x="59"
     inkscape:window-width="1233"
     inkscape:pageopacity="0.0"
     inkscape:pageshadow="2"
     inkscape:window-height="716"
     pagecolor="#ffffff"
     bordercolor="#666666"
     borderopacity="1.0"
     objecttolerance="10.0"
     inkscape:cy="67.50975"
     gridtolerance="10.0"
     guidetolerance="10.0"
     inkscape:cx="182.00439"
     inkscape:zoom="2.1461642"
     showgrid="false"
     inkscape:window-maximized="0" /><path
     id="path46"
     fill="#646464"
     d="M184.613,61.929c0-14.562-4.152-22.038-12.457-22.447c-3.304-0.156-6.531,0.37-9.669,1.589  c-2.505,0.896-4.191,1.784-5.078,2.681v34.758c5.313,3.334,10.03,4.884,14.143,4.64C180.256,82.573,184.613,75.507,184.613,61.929z   M194.857,62.533c0,7.398-1.735,13.539-5.224,18.422c-3.889,5.527-9.279,8.373-16.17,8.529c-5.195,0.165-10.546-1.462-16.054-4.874  v31.591l-8.909-3.178V42.903c1.462-1.793,3.343-3.333,5.624-4.639c5.302-3.09,11.745-4.679,19.329-4.757l0.126,0.127  c6.93-0.088,12.272,2.758,16.024,8.528C193.103,47.455,194.857,54.239,194.857,62.533z"
     style="fill:#757575;fill-opacity:1" /><path
     id="path48"
     fill="#646464"
     d="M249.305,83.266c0,9.923-0.994,16.794-2.982,20.615c-1.998,3.82-5.799,6.871-11.414,9.143  c-4.552,1.793-9.475,2.769-14.757,2.934l-1.472-5.614c5.371-0.73,9.152-1.462,11.346-2.193c4.318-1.462,7.281-3.703,8.908-6.705  c1.307-2.447,1.949-7.116,1.949-14.026v-2.32c-6.092,2.769-12.476,4.143-19.152,4.143c-4.387,0-8.256-1.374-11.59-4.143  c-3.742-3.012-5.613-6.832-5.613-11.462V36.558l8.908-3.051v37.321c0,3.986,1.287,7.057,3.859,9.211  c2.574,2.154,5.907,3.188,9.991,3.109c4.084-0.088,8.46-1.667,13.11-4.757v-43.54h8.908V83.266z"
     style="fill:#757575;fill-opacity:1" /><path
     id="path50"
     fill="#646464"
     d="M284.082,88.997c-1.063,0.088-2.037,0.126-2.934,0.126c-5.039,0-8.967-1.198-11.774-3.605  c-2.798-2.408-4.2-5.731-4.2-9.972v-35.09h-6.103v-5.604h6.103V19.968l8.898-3.168v18.052h10.01v5.604h-10.01v34.846  c0,3.344,0.896,5.712,2.689,7.097c1.541,1.14,3.987,1.793,7.32,1.959V88.997z"
     style="fill:#757575;fill-opacity:1" /><path
     id="path52"
     fill="#646464"
     d="M338.022,88.266h-8.908V53.878c0-3.499-0.819-6.511-2.446-9.025  c-1.882-2.847-4.494-4.27-7.847-4.27c-4.084,0-9.191,2.154-15.322,6.462v41.221h-8.909V6.069l8.909-2.807V40.7  c5.692-4.143,11.91-6.219,18.665-6.219c4.718,0,8.539,1.589,11.463,4.757c2.934,3.167,4.396,7.115,4.396,11.833V88.266  L338.022,88.266z"
     style="fill:#757575;fill-opacity:1" /><path
     id="path54"
     fill="#646464"
     d="M385.374,60.526c0-5.595-1.063-10.215-3.178-13.87c-2.515-4.454-6.423-6.804-11.706-7.047  c-9.767,0.565-14.64,7.563-14.64,20.976c0,6.15,1.014,11.287,3.061,15.41c2.612,5.254,6.53,7.847,11.755,7.759  C380.472,83.675,385.374,75.936,385.374,60.526z M395.131,60.584c0,7.964-2.037,14.592-6.102,19.884  c-4.474,5.927-10.653,8.899-18.539,8.899c-7.817,0-13.909-2.973-18.305-8.899c-3.986-5.292-5.975-11.92-5.975-19.884  c0-7.485,2.153-13.782,6.462-18.909c4.552-5.439,10.536-8.168,17.935-8.168s13.422,2.729,18.062,8.168  C392.977,46.802,395.131,53.099,395.131,60.584z"
     style="fill:#757575;fill-opacity:1" /><path
     id="path56"
     fill="#646464"
     d="M446.206,88.266h-8.909V51.929c0-3.986-1.199-7.096-3.597-9.338  c-2.397-2.232-5.595-3.313-9.581-3.227c-4.23,0.078-8.256,1.463-12.077,4.143v44.759h-8.908v-45.86  c5.127-3.732,9.844-6.17,14.152-7.31c4.064-1.063,7.651-1.589,10.741-1.589c2.115,0,4.104,0.204,5.976,0.614  c3.499,0.809,6.345,2.31,8.538,4.513c2.446,2.437,3.665,5.36,3.665,8.782V88.266z"
     style="fill:#757575;fill-opacity:1" /><linearGradient
     id="path1948_1_"
     gradientUnits="userSpaceOnUse"
     x1="93.3574"
     y1="-211.2546"
     x2="202.374"
     y2="-305.0487"
     gradientTransform="matrix(0.5625 0 0 -0.568 -49.6534 -110.3901)"><stop
       offset="0"
       style="stop-color:#5A9FD4"
       id="stop11" /><stop
       offset="1"
       style="stop-color:#306998"
       id="stop13" /></linearGradient><path
     id="path1948"
     fill="url(#path1948_1_)"
     d="M60.51,6.398c-4.584,0.021-8.961,0.412-12.813,1.094  c-11.346,2.005-13.406,6.2-13.406,13.938v10.219h26.813v3.406H34.292H24.229c-7.792,0-14.616,4.684-16.75,13.594  c-2.462,10.213-2.571,16.586,0,27.25c1.906,7.938,6.458,13.594,14.25,13.594h9.219v-12.25c0-8.85,7.657-16.656,16.75-16.656h26.781  c7.455,0,13.406-6.138,13.406-13.625V21.429c0-7.266-6.13-12.725-13.406-13.938C69.873,6.725,65.094,6.376,60.51,6.398z   M46.01,14.616c2.77,0,5.031,2.299,5.031,5.125c0,2.816-2.262,5.094-5.031,5.094c-2.78,0-5.031-2.277-5.031-5.094  C40.979,16.915,43.23,14.616,46.01,14.616z"
     style="fill:#757575;fill-opacity:1" /><linearGradient
     id="path1950_1_"
     gradientUnits="userSpaceOnUse"
     x1="244.5205"
     y1="-361.8171"
     x2="205.5908"
     y2="-306.7383"
     gradientTransform="matrix(0.5625 0 0 -0.568 -49.6534 -110.3901)"><stop
       offset="0"
       style="stop-color:#FFD43B"
       id="stop17" /><stop
       offset="1"
       style="stop-color:#FFE873"
       id="stop19" /></linearGradient><path
     id="path1950"
     fill="url(#path1950_1_)"
     d="M91.229,35.054V46.96c0,9.231-7.826,17-16.75,17H47.698  c-7.336,0-13.406,6.278-13.406,13.625v25.531c0,7.267,6.318,11.541,13.406,13.625c8.487,2.496,16.626,2.947,26.781,0  c6.75-1.954,13.406-5.888,13.406-13.625V92.898H61.104v-3.406h26.781h13.406c7.792,0,10.696-5.436,13.406-13.594  c2.799-8.398,2.68-16.476,0-27.25c-1.926-7.757-5.604-13.594-13.406-13.594H91.229z M76.167,99.71c2.779,0,5.031,2.277,5.031,5.094  c0,2.826-2.252,5.125-5.031,5.125c-2.77,0-5.031-2.299-5.031-5.125C71.135,101.988,73.397,99.71,76.167,99.71z"
     style="fill:#757575;fill-opacity:1" /></svg>