<?xml version="1.0" encoding="UTF-8" standalone="no"?>
<!-- Generator: Adobe Illustrator 15.0.2, SVG Export Plug-In . SVG Version: 6.00 Build 0)  -->

<svg
   xmlns:dc="http://purl.org/dc/elements/1.1/"
   xmlns:cc="http://creativecommons.org/ns#"
   xmlns:rdf="http://www.w3.org/1999/02/22-rdf-syntax-ns#"
   xmlns:svg="http://www.w3.org/2000/svg"
   xmlns="http://www.w3.org/2000/svg"
   xmlns:sodipodi="http://sodipodi.sourceforge.net/DTD/sodipodi-0.dtd"
   xmlns:inkscape="http://www.inkscape.org/namespaces/inkscape"
   version="1.1"
   id="Layer_1"
   x="0px"
   y="0px"
   width="306.96399"
   height="118.66"
   viewBox="0 0 306.96399 118.66"
   enable-background="new 0 0 436.504 118.66"
   xml:space="preserve"
   inkscape:version="0.91 r13725"
   sodipodi:docname="ic_django_gray.svg"><metadata
     id="metadata23"><rdf:RDF><cc:Work
         rdf:about=""><dc:format>image/svg+xml</dc:format><dc:type
           rdf:resource="http://purl.org/dc/dcmitype/StillImage" /><dc:title></dc:title></cc:Work></rdf:RDF></metadata><defs
     id="defs21" /><sodipodi:namedview
     pagecolor="#ffffff"
     bordercolor="#666666"
     borderopacity="1"
     objecttolerance="10"
     gridtolerance="10"
     guidetolerance="10"
     inkscape:pageopacity="0"
     inkscape:pageshadow="2"
     inkscape:window-width="1317"
     inkscape:window-height="744"
     id="namedview19"
     showgrid="false"
     fit-margin-left="0"
     inkscape:zoom="0.684988"
     inkscape:cx="216.55588"
     inkscape:cy="59.330002"
     inkscape:window-x="49"
     inkscape:window-y="24"
     inkscape:window-maximized="1"
     inkscape:current-layer="Layer_1" /><path
     d="m 36.191,5.665 16.788,0 0,77.704 c -8.612,1.636 -14.935,2.29 -21.802,2.29 C 10.683,85.658 0,76.393 0,58.624 0,41.51 11.338,30.392 28.888,30.392 c 2.725,0 4.796,0.217 7.304,0.871 l 0,-25.598 z m 0,39.114 c -1.962,-0.653 -3.597,-0.872 -5.668,-0.872 -8.502,0 -13.408,5.233 -13.408,14.389 0,8.939 4.688,13.845 13.3,13.845 1.852,0 3.379,-0.108 5.777,-0.436 l 0,-26.926 z"
     id="path7"
     inkscape:connector-curvature="0"
     style="fill:#757575;fill-opacity:1" /><path
     d="m 79.685,31.59 0,38.916 c 0,13.408 -0.981,19.84 -3.924,25.399 -2.726,5.342 -6.323,8.721 -13.735,12.428 L 46.438,100.92 c 7.413,-3.488 11.01,-6.54 13.298,-11.229 2.399,-4.796 3.163,-10.355 3.163,-24.963 l 0,-33.138 16.786,0 z M 62.898,5.754 l 16.787,0 0,17.224 -16.787,0 0,-17.224 z"
     id="path9"
     inkscape:connector-curvature="0"
     style="fill:#757575;fill-opacity:1" /><path
     d="m 89.825,35.405 c 7.414,-3.487 14.499,-5.013 22.238,-5.013 8.612,0 14.28,2.288 16.788,6.758 1.417,2.507 1.852,5.777 1.852,12.755 l 0,34.119 c -7.522,1.09 -17.005,1.854 -23.981,1.854 -14.062,0 -20.385,-4.907 -20.385,-15.807 0,-11.774 8.394,-17.224 28.997,-18.969 l 0,-3.706 c 0,-3.052 -1.526,-4.141 -5.777,-4.141 -6.213,0 -13.19,1.744 -19.731,5.124 l -10e-4,-12.974 0,0 z m 26.271,26.707 c -11.12,1.09 -14.716,2.835 -14.716,7.195 0,3.27 2.071,4.796 6.649,4.796 2.508,0 4.796,-0.218 8.067,-0.763 l 0,-11.228 0,0 z"
     id="path11"
     inkscape:connector-curvature="0"
     style="fill:#757575;fill-opacity:1" /><path
     d="m 138.879,34.206 c 9.919,-2.616 18.094,-3.814 26.379,-3.814 8.612,0 14.825,1.961 18.533,5.777 3.488,3.597 4.577,7.52 4.577,15.916 l 0,32.919 -16.787,0 0,-32.266 c 0,-6.431 -2.18,-8.831 -8.175,-8.831 -2.29,0 -4.36,0.218 -7.741,1.199 l 0,39.897 -16.787,0 0,-50.797 z"
     id="path13"
     inkscape:connector-curvature="0"
     style="fill:#757575;fill-opacity:1" /><path
     d="m 194.896,94.161 c 5.888,3.053 11.772,4.469 17.986,4.469 11.009,0 15.696,-4.469 15.696,-15.151 0,-0.109 0,-0.219 0,-0.327 -3.27,1.635 -6.54,2.289 -10.899,2.289 -14.717,0 -24.093,-9.702 -24.093,-25.071 0,-19.079 13.845,-29.869 38.371,-29.869 7.196,0 13.845,0.762 21.912,2.397 l -5.748,12.109 c -4.47,-0.872 -0.357,-0.117 -3.736,-0.444 l 0,1.745 0.219,7.084 0.106,9.158 c 0.11,2.288 0.11,4.577 0.22,6.866 0,2.071 0,3.054 0,4.579 0,14.389 -1.199,21.147 -4.796,26.707 -5.233,8.176 -14.28,12.209 -27.144,12.209 -6.541,0 -12.209,-0.98 -18.096,-3.271 l 0.002,-15.479 0,0 z m 33.357,-50.144 c -0.219,0 -0.436,0 -0.545,0 l -1.199,0 c -3.27,-0.109 -7.085,0.762 -9.702,2.397 -4.031,2.29 -6.104,6.433 -6.104,12.319 0,8.394 4.143,13.19 11.556,13.19 2.288,0 4.143,-0.437 6.322,-1.089 l 0,-1.201 0,-4.576 c 0,-1.963 -0.108,-4.144 -0.108,-6.432 l -0.108,-7.739 -0.11,-5.56 0,-1.309 -0.002,0 z"
     id="path15"
     inkscape:connector-curvature="0"
     style="fill:#757575;fill-opacity:1" /><path
     d="m 279.931,30.173 c 16.786,0 27.033,10.575 27.033,27.688 0,17.551 -10.682,28.561 -27.688,28.561 -16.788,0 -27.143,-10.574 -27.143,-27.58 0,-17.66 10.682,-28.669 27.798,-28.669 z m -0.329,42.732 c 6.434,0 10.249,-5.343 10.249,-14.608 0,-9.156 -3.707,-14.607 -10.138,-14.607 -6.65,0 -10.467,5.342 -10.467,14.607 0,9.266 3.817,14.608 10.356,14.608 z"
     id="path17"
     inkscape:connector-curvature="0"
     style="fill:#757575;fill-opacity:1" /></svg>