<?xml version="1.0" encoding="UTF-8" standalone="no"?>
<svg
   xmlns:dc="http://purl.org/dc/elements/1.1/"
   xmlns:cc="http://creativecommons.org/ns#"
   xmlns:rdf="http://www.w3.org/1999/02/22-rdf-syntax-ns#"
   xmlns:svg="http://www.w3.org/2000/svg"
   xmlns="http://www.w3.org/2000/svg"
   version="1.1"
   id="svg2"
   viewBox="0 0 230.44477 81.611732"
   height="23.032646mm"
   width="65.036636mm">
  <defs
     id="defs4" />
  <metadata
     id="metadata7">
    <rdf:RDF>
      <cc:Work
         rdf:about="">
        <dc:format>image/svg+xml</dc:format>
        <dc:type
           rdf:resource="http://purl.org/dc/dcmitype/StillImage" />
        <dc:title></dc:title>
      </cc:Work>
    </rdf:RDF>
  </metadata>
  <g
     id="g3451">
    <g
       id="g3339"
       transform="translate(40.255914,9.5367432e-7)">
      <path
         id="path4149-72"
         style="font-style:normal;font-weight:normal;font-size:medium;line-height:125%;font-family:sans-serif;letter-spacing:-0.5px;word-spacing:-0.5px;fill:#c0c0c0;fill-opacity:1;stroke:none;stroke-width:1px;stroke-linecap:butt;stroke-linejoin:miter;stroke-opacity:1"
         d="m 32.79776,0.98673904 0,29.75999996 -6.72,0 0,-29.75999996 6.72,0 0,0 z" />
      <path
         id="path4151-1"
         style="font-style:normal;font-weight:normal;font-size:medium;line-height:125%;font-family:sans-serif;letter-spacing:-0.5px;word-spacing:-0.5px;fill:#c0c0c0;fill-opacity:1;stroke:none;stroke-width:1px;stroke-linecap:butt;stroke-linejoin:miter;stroke-opacity:1"
         d="m 47.10901,30.746739 -5.2,-11.28 -0.08,0 0,11.28 -6.72,0 0,-29.75999996 9.04,0 0.04,0 q 1.92,0 3.6,0.72000006 1.72,0.72 2.96,2 1.28,1.24 2,2.92 0.72,1.68 0.72,3.5999999 0,2.72 -1.4,4.92 -1.4,2.16 -3.68,3.32 l 5.64,12.28 -6.92,0 z" />
      <path
         id="path4153-1"
         style="font-style:normal;font-weight:normal;font-size:medium;line-height:125%;font-family:sans-serif;letter-spacing:-2.5px;word-spacing:-0.5px;fill:#c0c0c0;fill-opacity:1;stroke:none;stroke-width:1px;stroke-linecap:butt;stroke-linejoin:miter;stroke-opacity:1"
         d="m 66.58839,24.066739 q 1,0 1.84,-0.4 0.88,-0.44 1.52,-1.16 0.68,-0.72 1.04,-1.68 0.4,-0.96 0.4,-2.04 l 6.72,0 q 0,2.4 -0.84,4.56 -0.84,2.16 -2.48,3.88 -1.64,1.72 -3.76,2.64 -2.08,0.92 -4.44,0.92 l -0.04,0 q -2.36,0 -4.44,-0.92 -2.08,-0.92 -3.76,-2.64 -1.56,-1.68 -2.44,-3.76 -0.84,-2.12 -0.88,-4.44 l 0,-6.16 q 0.04,-2.4 0.88,-4.5199999 0.84,-2.12 2.44,-3.8 1.68,-1.72 3.76,-2.64 2.08,-0.92000006 4.44,-0.92000006 l 0.04,0 q 2.36,0 4.44,0.92000006 2.12,0.92 3.76,2.64 1.64,1.72 2.48,3.88 0.84,2.1599999 0.84,4.5599999 l -6.72,0 q 0,-1.08 -0.4,-2.04 -0.36,-0.9599999 -1.04,-1.6799999 -0.64,-0.72 -1.52,-1.12 -0.84,-0.44 -1.84,-0.44 -1,0 -1.88,0.44 -0.88,0.4 -1.56,1.12 -0.64,0.72 -1.04,1.6799999 -0.36,0.96 -0.36,2.04 l 0,5.8 q 0,1.08 0.36,2.04 0.4,0.96 1.04,1.68 0.68,0.72 1.56,1.16 0.88,0.4 1.88,0.4 z" />
      <path
         id="path4155-9"
         style="font-style:normal;font-variant:normal;font-weight:normal;font-stretch:normal;font-size:39.46949768px;line-height:125%;font-family:LuzSans-Light;-inkscape-font-specification:LuzSans-Light;letter-spacing:-1.25px;word-spacing:0px;fill:#c0c0c0;fill-opacity:1;stroke:none;stroke-width:1px;stroke-linecap:butt;stroke-linejoin:miter;stroke-opacity:1"
         d="m 100.94046,30.746739 -3.98642,-9.78843 -12.98548,0 -3.98641,9.78843 -1.89454,0 L 90.5205,-9.5367432e-7 l 0.0789,0 L 102.99283,30.746739 l -2.05241,0 z M 90.48103,4.8942191 l -0.0395,0 -5.76254,14.2879599 11.56457,0 L 90.481,4.8942191 Z" />
      <path
         id="path4157-40"
         style="font-style:normal;font-variant:normal;font-weight:normal;font-stretch:normal;font-size:39.46949768px;line-height:125%;font-family:LuzSans-Light;-inkscape-font-specification:LuzSans-Light;letter-spacing:-1.25px;word-spacing:0px;fill:#c0c0c0;fill-opacity:1;stroke:none;stroke-width:1px;stroke-linecap:butt;stroke-linejoin:miter;stroke-opacity:1"
         d="m 119.48935,8.8016991 q 0,1.6971899 -0.55258,3.1575599 -0.5131,1.4209 -1.57878,2.44711 -1.06567,1.02621 -2.68392,1.61825 -1.61825,0.59204 -3.7496,0.59204 l -3.90748,0 0,14.13008 -1.89454,0 0,-29.75999996 5.76255,0 q 2.13135,0 3.7496,0.59204006 1.61825,0.59205 2.68392,1.61825 1.10515,1.02621 1.61825,2.48658 0.55258,1.4209 0.55258,3.11809 z m -1.89454,0 q 0,-2.76286 -1.61825,-4.38111 -1.57878,-1.65772 -5.13103,-1.65772 l -3.82854,0 0,12.1171299 3.82854,0 q 3.55225,0 5.13103,-1.65771 1.61825,-1.65772 1.61825,-4.4205899 z" />
      <path
         id="path4159-6"
         style="font-style:normal;font-variant:normal;font-weight:normal;font-stretch:normal;font-size:39.46949768px;line-height:125%;font-family:LuzSans-Light;-inkscape-font-specification:LuzSans-Light;letter-spacing:-1.25px;word-spacing:0px;fill:#c0c0c0;fill-opacity:1;stroke:none;stroke-width:1px;stroke-linecap:butt;stroke-linejoin:miter;stroke-opacity:1"
         d="m 136.89485,8.8016991 q 0,1.6971899 -0.55257,3.1575599 -0.51311,1.4209 -1.57878,2.44711 -1.06568,1.02621 -2.68393,1.61825 -1.61825,0.59204 -3.7496,0.59204 l -3.90748,0 0,14.13008 -1.89454,0 0,-29.75999996 5.76255,0 q 2.13135,0 3.7496,0.59204006 1.61825,0.59205 2.68393,1.61825 1.10514,1.02621 1.61825,2.48658 0.55257,1.4209 0.55257,3.11809 z m -1.89454,0 q 0,-2.76286 -1.61825,-4.38111 -1.57878,-1.65772 -5.13103,-1.65772 l -3.82854,0 0,12.1171299 3.82854,0 q 3.55225,0 5.13103,-1.65771 1.61825,-1.65772 1.61825,-4.4205899 z" />
      <path
         style="opacity:0.98999999;fill:#c0c0c0;fill-opacity:1;fill-rule:evenodd;stroke:none;stroke-width:1px;stroke-linecap:butt;stroke-linejoin:miter;stroke-opacity:1"
         d="m 0,31.733739 6.61818,-25.1628999 2.89546,1.72348 3.72273,-7.30758006 8.54849,0 -8.61743,15.02880996 -2.89547,-1.93031 z"
         id="path4138-0" />
    </g>
  </g>
  <flowRoot
     transform="translate(42.319414,-27.207137)"
     style="font-style:normal;font-weight:normal;font-size:40px;line-height:125%;font-family:sans-serif;letter-spacing:0px;word-spacing:0px;fill:#000000;fill-opacity:1;stroke:none;stroke-width:1px;stroke-linecap:butt;stroke-linejoin:miter;stroke-opacity:1"
     id="flowRoot3348"
     xml:space="preserve"><flowRegion
       id="flowRegion3350"><rect
         y="46.842537"
         x="-1.3735269"
         height="82.411613"
         width="203.28198"
         id="rect3352" /></flowRegion><flowPara
       id="flowPara3354" /></flowRoot>  <g
     id="flowRoot3356"
     style="font-style:normal;font-weight:normal;font-size:40px;line-height:125%;font-family:sans-serif;text-align:center;letter-spacing:0px;word-spacing:0px;text-anchor:middle;opacity:0.87000002;fill:#000000;fill-opacity:1;stroke:none;stroke-width:1px;stroke-linecap:butt;stroke-linejoin:miter;stroke-opacity:1"
     transform="translate(42.319414,-27.207136)">
    <path
       id="path3462"
       style="font-style:normal;font-variant:normal;font-weight:normal;font-stretch:normal;font-size:15px;font-family:LuzSans-Medium;-inkscape-font-specification:LuzSans-Medium;text-align:center;text-anchor:middle"
       d="m -35.389414,78.158867 q 0,0.75 -0.24,1.38 -0.24,0.615 -0.705,1.065 -0.45,0.435 -1.125,0.675 -0.675,0.24 -1.545,0.24 l -1.485,0 0,4.56 -1.83,0 0,-11.31 3.3,0 q 0.87,0 1.545,0.255 0.675,0.24 1.14,0.69 0.465,0.45 0.705,1.08 0.24,0.615 0.24,1.365 z m -1.815,0 q 0,-0.87 -0.54,-1.365 -0.525,-0.495 -1.74,-0.495 l -1.005,0 0,3.705 1.005,0 q 1.215,0 1.74,-0.48 0.54,-0.495 0.54,-1.365 z" />
    <path
       id="path3464"
       style="font-style:normal;font-variant:normal;font-weight:normal;font-stretch:normal;font-size:15px;font-family:LuzSans-Medium;-inkscape-font-specification:LuzSans-Medium;text-align:center;text-anchor:middle"
       d="m -33.85332,86.078867 0,-12.405 1.725,0 0,12.405 -1.725,0 z" />
    <path
       id="path3466"
       style="font-style:normal;font-variant:normal;font-weight:normal;font-stretch:normal;font-size:15px;font-family:LuzSans-Medium;-inkscape-font-specification:LuzSans-Medium;text-align:center;text-anchor:middle"
       d="m -28.98043,82.703867 q 0.015,0.54 0.195,0.96 0.195,0.42 0.51,0.72 0.315,0.285 0.72,0.435 0.42,0.15 0.885,0.15 0.72,0 1.23,-0.315 0.525,-0.33 0.84,-0.855 l 1.5,0.15 q -0.195,0.555 -0.57,0.99 -0.36,0.435 -0.84,0.735 -0.465,0.3 -1.035,0.45 -0.555,0.15 -1.155,0.15 -0.87,0 -1.605,-0.27 -0.735,-0.285 -1.26,-0.795 -0.51,-0.51 -0.81,-1.215 -0.285,-0.72 -0.285,-1.59 0,-0.855 0.285,-1.575 0.285,-0.72 0.795,-1.245 0.51,-0.525 1.215,-0.81 0.72,-0.3 1.575,-0.3 0.9,0 1.605,0.3 0.72,0.285 1.215,0.84 0.495,0.54 0.75,1.335 0.255,0.78 0.24,1.755 l -6,0 z m 4.35,-1.05 q -0.135,-0.84 -0.66,-1.38 -0.525,-0.54 -1.47,-0.54 -0.915,0 -1.5,0.555 -0.585,0.54 -0.705,1.365 l 4.335,0 0,0 z" />
    <path
       id="path3468"
       style="font-style:normal;font-variant:normal;font-weight:normal;font-stretch:normal;font-size:15px;font-family:LuzSans-Medium;-inkscape-font-specification:LuzSans-Medium;text-align:center;text-anchor:middle"
       d="m -15.908633,86.078867 0,-1.08 -0.03,0 q -0.315,0.585 -1.035,0.93 -0.72,0.345 -1.53,0.345 -0.735,0 -1.395,-0.285 -0.66,-0.285 -1.14,-0.795 -0.48,-0.525 -0.765,-1.245 -0.285,-0.72 -0.285,-1.59 0,-0.795 0.27,-1.5 0.27,-0.72 0.75,-1.245 0.495,-0.525 1.155,-0.825 0.675,-0.315 1.47,-0.315 0.795,0 1.455,0.315 0.66,0.315 1.05,0.9 l 0.03,0 0,-1.005 1.695,0 0,7.395 -1.695,0 z m 0.06,-3.75 q 0,-0.48 -0.165,-0.915 -0.165,-0.45 -0.465,-0.78 -0.3,-0.33 -0.735,-0.525 -0.435,-0.195 -0.96,-0.195 -0.54,0 -0.975,0.195 -0.42,0.195 -0.72,0.54 -0.3,0.33 -0.465,0.78 -0.15,0.45 -0.15,0.945 0,0.495 0.165,0.945 0.165,0.435 0.465,0.78 0.315,0.345 0.75,0.555 0.435,0.195 0.96,0.195 0.54,0 0.96,-0.195 0.435,-0.21 0.72,-0.555 0.3,-0.36 0.45,-0.81 0.165,-0.465 0.165,-0.96 z" />
    <path
       id="path3470"
       style="font-style:normal;font-variant:normal;font-weight:normal;font-stretch:normal;font-size:15px;font-family:LuzSans-Medium;-inkscape-font-specification:LuzSans-Medium;text-align:center;text-anchor:middle"
       d="m -7.3858203,83.798867 q 0,0.555 -0.225,1.02 -0.21,0.45 -0.6,0.78 -0.375,0.33 -0.885,0.495 -0.51,0.18 -1.0949997,0.18 -0.9,0 -1.665,-0.36 -0.75,-0.36 -1.245,-1.005 l 0.84,-1.02 q 0.345,0.45 0.885,0.765 0.555,0.315 1.155,0.315 0.5699997,0 0.8849997,-0.3 0.315,-0.3 0.315,-0.72 0,-0.36 -0.27,-0.57 -0.255,-0.21 -0.645,-0.375 -0.3899997,-0.18 -0.8399997,-0.345 -0.45,-0.165 -0.84,-0.405 -0.39,-0.24 -0.66,-0.615 -0.255,-0.375 -0.255,-0.96 0,-0.495 0.195,-0.9 0.195,-0.405 0.54,-0.69 0.36,-0.3 0.825,-0.45 0.48,-0.165 1.0349997,-0.165 0.765,0 1.29,0.225 0.525,0.225 0.96,0.615 l -0.72,1.095 q -0.3,-0.27 -0.66,-0.45 -0.36,-0.195 -0.75,-0.195 -0.4949997,0 -0.7949997,0.255 -0.285,0.255 -0.285,0.63 0,0.285 0.255,0.48 0.27,0.18 0.6599997,0.33 0.39,0.15 0.84,0.315 0.45,0.165 0.84,0.42 0.39,0.24 0.645,0.63 0.27,0.375 0.27,0.975 z" />
    <path
       id="path3472"
       style="font-style:normal;font-variant:normal;font-weight:normal;font-stretch:normal;font-size:15px;font-family:LuzSans-Medium;-inkscape-font-specification:LuzSans-Medium;text-align:center;text-anchor:middle"
       d="m -4.8398047,82.703867 q 0.015,0.54 0.195,0.96 0.195,0.42 0.51,0.72 0.315,0.285 0.72,0.435 0.42,0.15 0.885,0.15 0.72,0 1.23,-0.315 0.52500001,-0.33 0.84000001,-0.855 l 1.49999999,0.15 q -0.19499999,0.555 -0.56999999,0.99 -0.36,0.435 -0.84,0.735 -0.465,0.3 -1.03500001,0.45 -0.555,0.15 -1.155,0.15 -0.87,0 -1.605,-0.27 -0.735,-0.285 -1.26,-0.795 -0.51,-0.51 -0.81,-1.215 -0.285,-0.72 -0.285,-1.59 0,-0.855 0.285,-1.575 0.285,-0.72 0.795,-1.245 0.51,-0.525 1.215,-0.81 0.72,-0.3 1.575,-0.3 0.9,0 1.605,0.3 0.72000001,0.285 1.21500001,0.84 0.495,0.54 0.75,1.335 0.25499999,0.78 0.23999999,1.755 l -6,0 z m 4.35000001,-1.05 q -0.135,-0.84 -0.66000001,-1.38 -0.525,-0.54 -1.47,-0.54 -0.915,0 -1.5,0.555 -0.585,0.54 -0.705,1.365 l 4.33500001,0 0,0 z" />
    <path
       id="path3474"
       style="font-style:normal;font-variant:normal;font-weight:normal;font-stretch:normal;font-size:15px;font-family:LuzSans-Medium;-inkscape-font-specification:LuzSans-Medium;text-align:center;text-anchor:middle"
       d="m 14.484883,86.258867 -1.065,0 -1.995,-5.085 -1.9800002,5.085 -1.11,0 -3.045,-7.575 1.8,0 1.875,5.025 0.03,0 1.9800002,-5.13 0.915,0 1.98,5.13 0.03,0 1.875,-5.025 1.8,0 -3.09,7.575 z" />
    <path
       id="path3476"
       style="font-style:normal;font-variant:normal;font-weight:normal;font-stretch:normal;font-size:15px;font-family:LuzSans-Medium;-inkscape-font-specification:LuzSans-Medium;text-align:center;text-anchor:middle"
       d="m 23.935117,86.078867 0,-1.08 -0.03,0 q -0.315,0.585 -1.035,0.93 -0.72,0.345 -1.53,0.345 -0.735,0 -1.395,-0.285 -0.66,-0.285 -1.14,-0.795 -0.48,-0.525 -0.765,-1.245 -0.285,-0.72 -0.285,-1.59 0,-0.795 0.27,-1.5 0.27,-0.72 0.75,-1.245 0.495,-0.525 1.155,-0.825 0.675,-0.315 1.47,-0.315 0.795,0 1.455,0.315 0.66,0.315 1.05,0.9 l 0.03,0 0,-1.005 1.695,0 0,7.395 -1.695,0 z m 0.06,-3.75 q 0,-0.48 -0.165,-0.915 -0.165,-0.45 -0.465,-0.78 -0.3,-0.33 -0.735,-0.525 -0.435,-0.195 -0.96,-0.195 -0.54,0 -0.975,0.195 -0.42,0.195 -0.72,0.54 -0.3,0.33 -0.465,0.78 -0.15,0.45 -0.15,0.945 0,0.495 0.165,0.945 0.165,0.435 0.465,0.78 0.315,0.345 0.75,0.555 0.435,0.195 0.96,0.195 0.54,0 0.96,-0.195 0.435,-0.21 0.72,-0.555 0.3,-0.36 0.45,-0.81 0.165,-0.465 0.165,-0.96 z" />
    <path
       id="path3478"
       style="font-style:normal;font-variant:normal;font-weight:normal;font-stretch:normal;font-size:15px;font-family:LuzSans-Medium;-inkscape-font-specification:LuzSans-Medium;text-align:center;text-anchor:middle"
       d="m 29.39793,76.148867 q 0,0.39 -0.3,0.675 -0.285,0.285 -0.675,0.285 -0.405,0 -0.705,-0.285 -0.285,-0.285 -0.285,-0.675 0,-0.405 0.285,-0.69 0.3,-0.3 0.705,-0.3 0.39,0 0.675,0.3 0.3,0.285 0.3,0.69 z m -1.845,9.93 0,-7.395 1.725,0 0,7.395 -1.725,0 z" />
    <path
       id="path3480"
       style="font-style:normal;font-variant:normal;font-weight:normal;font-stretch:normal;font-size:15px;font-family:LuzSans-Medium;-inkscape-font-specification:LuzSans-Medium;text-align:center;text-anchor:middle"
       d="m 33.37082,80.138867 0,5.94 -1.725,0 0,-5.94 -0.825,0 0,-1.455 0.825,0 0,-2.415 1.725,0 0,2.415 1.395,0 0,1.455 -1.395,0 z" />
    <path
       id="path3482"
       style="font-style:normal;font-variant:normal;font-weight:normal;font-stretch:normal;font-size:15px;font-family:LuzSans-Medium;-inkscape-font-specification:LuzSans-Medium;text-align:center;text-anchor:middle"
       d="m 47.88332,86.258867 -1.065,0 -1.995,-5.085 -1.98,5.085 -1.11,0 -3.045,-7.575 1.8,0 1.875,5.025 0.03,0 1.98,-5.13 0.915,0 1.98,5.13 0.03,0 1.875,-5.025 1.8,0 -3.09,7.575 z" />
    <path
       id="path3484"
       style="font-style:normal;font-variant:normal;font-weight:normal;font-stretch:normal;font-size:15px;font-family:LuzSans-Medium;-inkscape-font-specification:LuzSans-Medium;text-align:center;text-anchor:middle"
       d="m 56.81793,86.078867 0,-4.26 q 0,-0.42 -0.075,-0.78 -0.06,-0.36 -0.24,-0.615 -0.165,-0.27 -0.465,-0.42 -0.3,-0.15 -0.75,-0.15 -0.435,0 -0.765,0.195 -0.315,0.18 -0.54,0.51 -0.21,0.315 -0.315,0.735 -0.105,0.42 -0.105,0.885 l 0,3.9 -1.695,0 0,-12.405 1.695,0 0,6.015 0.03,0 q 0.795,-1.215 2.325,-1.215 1.275,0 1.935,0.795 0.675,0.78 0.675,2.145 l 0,4.665 -1.71,0 z" />
    <path
       id="path3486"
       style="font-style:normal;font-variant:normal;font-weight:normal;font-stretch:normal;font-size:15px;font-family:LuzSans-Medium;-inkscape-font-specification:LuzSans-Medium;text-align:center;text-anchor:middle"
       d="m 62.356914,76.148867 q 0,0.39 -0.3,0.675 -0.285,0.285 -0.675,0.285 -0.405,0 -0.705,-0.285 -0.285,-0.285 -0.285,-0.675 0,-0.405 0.285,-0.69 0.3,-0.3 0.705,-0.3 0.39,0 0.675,0.3 0.3,0.285 0.3,0.69 z m -1.845,9.93 0,-7.395 1.725,0 0,7.395 -1.725,0 z" />
    <path
       id="path3488"
       style="font-style:normal;font-variant:normal;font-weight:normal;font-stretch:normal;font-size:15px;font-family:LuzSans-Medium;-inkscape-font-specification:LuzSans-Medium;text-align:center;text-anchor:middle"
       d="m 64.349805,86.078867 0,-12.405 1.725,0 0,12.405 -1.725,0 z" />
    <path
       id="path3490"
       style="font-style:normal;font-variant:normal;font-weight:normal;font-stretch:normal;font-size:15px;font-family:LuzSans-Medium;-inkscape-font-specification:LuzSans-Medium;text-align:center;text-anchor:middle"
       d="m 69.222695,82.703867 q 0.015,0.54 0.195,0.96 0.195,0.42 0.51,0.72 0.315,0.285 0.72,0.435 0.42,0.15 0.885,0.15 0.72,0 1.23,-0.315 0.525,-0.33 0.84,-0.855 l 1.5,0.15 q -0.195,0.555 -0.57,0.99 -0.36,0.435 -0.84,0.735 -0.465,0.3 -1.035,0.45 -0.555,0.15 -1.155,0.15 -0.87,0 -1.605,-0.27 -0.735,-0.285 -1.26,-0.795 -0.51,-0.51 -0.81,-1.215 -0.285,-0.72 -0.285,-1.59 0,-0.855 0.285,-1.575 0.285,-0.72 0.795,-1.245 0.51,-0.525 1.215,-0.81 0.72,-0.3 1.575,-0.3 0.9,0 1.605,0.3 0.72,0.285 1.215,0.84 0.495,0.54 0.75,1.335 0.255,0.78 0.24,1.755 l -6,0 z m 4.35,-1.05 q -0.135,-0.84 -0.66,-1.38 -0.525,-0.54 -1.47,-0.54 -0.915,0 -1.5,0.555 -0.585,0.54 -0.705,1.365 l 4.335,0 0,0 z" />
    <path
       id="path3492"
       style="font-style:normal;font-variant:normal;font-weight:normal;font-stretch:normal;font-size:15px;font-family:LuzSans-Medium;-inkscape-font-specification:LuzSans-Medium;text-align:center;text-anchor:middle"
       d="m 80.522383,86.078867 0,-11.31 1.83,0 0,11.31 -1.83,0 z" />
    <path
       id="path3494"
       style="font-style:normal;font-variant:normal;font-weight:normal;font-stretch:normal;font-size:15px;font-family:LuzSans-Medium;-inkscape-font-specification:LuzSans-Medium;text-align:center;text-anchor:middle"
       d="m 89.847461,86.078867 -3.33,-4.845 -0.21,0 0,4.845 -1.83,0 0,-11.31 2.91,0 q 1.92,0 2.88,0.87 0.96,0.87 0.96,2.37 0,1.185 -0.735,2.04 -0.735,0.84 -2.1,1.035 l 3.585,4.995 -2.13,0 z m -0.51,-7.98 q 0,-0.915 -0.57,-1.38 -0.57,-0.48 -1.89,-0.48 l -0.57,0 0,3.705 0.75,0 q 1.125,0 1.695,-0.48 0.585,-0.495 0.585,-1.365 z" />
    <path
       id="path3496"
       style="font-style:normal;font-variant:normal;font-weight:normal;font-stretch:normal;font-size:15px;font-family:LuzSans-Medium;-inkscape-font-specification:LuzSans-Medium;text-align:center;text-anchor:middle"
       d="m 101.55355,85.328867 q -0.75,0.465 -1.53,0.72 -0.779995,0.24 -1.619995,0.24 -1.365,0 -2.475,-0.45 -1.11,-0.465 -1.89,-1.26 -0.78,-0.81 -1.215,-1.875 -0.42,-1.08 -0.42,-2.295 0,-1.215 0.42,-2.28 0.435,-1.065 1.215,-1.86 0.78,-0.81 1.875,-1.26 1.11,-0.465 2.445,-0.465 0.9,0 1.709995,0.27 0.81,0.255 1.485,0.735 l 0,2.085 -0.03,0.015 q -0.555,-0.66 -1.41,-1.02 -0.854995,-0.375 -1.754995,-0.375 -0.9,0 -1.65,0.315 -0.75,0.3 -1.29,0.855 -0.54,0.555 -0.855,1.32 -0.3,0.765 -0.3,1.665 0,0.885 0.315,1.65 0.315,0.765 0.87,1.335 0.57,0.57 1.32,0.9 0.765,0.315 1.635,0.315 0.405,0 0.84,-0.09 0.45,-0.105 0.854995,-0.285 0.42,-0.18 0.78,-0.42 0.375,-0.255 0.645,-0.555 l 0.03,0.03 0,2.04 0,0 z" />
    <path
       id="path3498"
       style="font-style:normal;font-variant:normal;font-weight:normal;font-stretch:normal;font-size:15px;font-family:LuzSans-Medium;-inkscape-font-specification:LuzSans-Medium;text-align:center;text-anchor:middle"
       d="m 108.92535,86.078867 0,-1.08 -0.03,0 q -0.315,0.585 -1.035,0.93 -0.72,0.345 -1.53,0.345 -0.735,0 -1.395,-0.285 -0.66,-0.285 -1.14,-0.795 -0.48,-0.525 -0.765,-1.245 -0.285,-0.72 -0.285,-1.59 0,-0.795 0.27,-1.5 0.27,-0.72 0.75,-1.245 0.495,-0.525 1.155,-0.825 0.675,-0.315 1.47,-0.315 0.795,0 1.455,0.315 0.66,0.315 1.05,0.9 l 0.03,0 0,-1.005 1.695,0 0,7.395 -1.695,0 z m 0.06,-3.75 q 0,-0.48 -0.165,-0.915 -0.165,-0.45 -0.465,-0.78 -0.3,-0.33 -0.735,-0.525 -0.435,-0.195 -0.96,-0.195 -0.54,0 -0.975,0.195 -0.42,0.195 -0.72,0.54 -0.3,0.33 -0.465,0.78 -0.15,0.45 -0.15,0.945 0,0.495 0.165,0.945 0.165,0.435 0.465,0.78 0.315,0.345 0.75,0.555 0.435,0.195 0.96,0.195 0.54,0 0.96,-0.195 0.435,-0.21 0.72,-0.555 0.3,-0.36 0.45,-0.81 0.165,-0.465 0.165,-0.96 z" />
    <path
       id="path3500"
       style="font-style:normal;font-variant:normal;font-weight:normal;font-stretch:normal;font-size:15px;font-family:LuzSans-Medium;-inkscape-font-specification:LuzSans-Medium;text-align:center;text-anchor:middle"
       d="m 120.29816,82.283867 q 0,0.87 -0.285,1.605 -0.27,0.735 -0.765,1.26 -0.48,0.525 -1.14,0.825 -0.66,0.3 -1.41,0.3 -0.81,0 -1.5,-0.315 -0.69,-0.33 -1.05,-0.9 l -0.03,0 0,5.01 -1.725,0 0,-11.385 1.725,0 0,0.96 0.03,0 q 0.42,-0.555 1.095,-0.855 0.69,-0.315 1.485,-0.315 0.795,0 1.44,0.3 0.66,0.285 1.125,0.81 0.48,0.51 0.735,1.215 0.27,0.69 0.27,1.485 z m -1.62,0.09 q 0,-0.495 -0.165,-0.93 -0.165,-0.45 -0.48,-0.78 -0.3,-0.345 -0.72,-0.54 -0.42,-0.195 -0.945,-0.195 -0.525,0 -0.96,0.195 -0.42,0.195 -0.735,0.525 -0.3,0.33 -0.465,0.765 -0.165,0.435 -0.165,0.915 0,0.495 0.15,0.96 0.15,0.45 0.435,0.81 0.3,0.345 0.72,0.555 0.435,0.195 0.99,0.195 0.525,0 0.96,-0.195 0.435,-0.21 0.735,-0.555 0.315,-0.345 0.48,-0.78 0.165,-0.45 0.165,-0.945 z" />
    <path
       id="path3502"
       style="font-style:normal;font-variant:normal;font-weight:normal;font-stretch:normal;font-size:15px;font-family:LuzSans-Medium;-inkscape-font-specification:LuzSans-Medium;text-align:center;text-anchor:middle"
       d="m 129.55598,82.283867 q 0,0.87 -0.285,1.605 -0.27,0.735 -0.765,1.26 -0.48,0.525 -1.14,0.825 -0.66,0.3 -1.41,0.3 -0.81,0 -1.5,-0.315 -0.69,-0.33 -1.05,-0.9 l -0.03,0 0,5.01 -1.725,0 0,-11.385 1.725,0 0,0.96 0.03,0 q 0.42,-0.555 1.095,-0.855 0.69,-0.315 1.485,-0.315 0.795,0 1.44,0.3 0.66,0.285 1.125,0.81 0.48,0.51 0.735,1.215 0.27,0.69 0.27,1.485 z m -1.62,0.09 q 0,-0.495 -0.165,-0.93 -0.165,-0.45 -0.48,-0.78 -0.3,-0.345 -0.72,-0.54 -0.42,-0.195 -0.945,-0.195 -0.525,0 -0.96,0.195 -0.42,0.195 -0.735,0.525 -0.3,0.33 -0.465,0.765 -0.165,0.435 -0.165,0.915 0,0.495 0.15,0.96 0.15,0.45 0.435,0.81 0.3,0.345 0.72,0.555 0.435,0.195 0.99,0.195 0.525,0 0.96,-0.195 0.435,-0.21 0.735,-0.555 0.315,-0.345 0.48,-0.78 0.165,-0.45 0.165,-0.945 z" />
    <path
       id="path3504"
       style="font-style:normal;font-variant:normal;font-weight:normal;font-stretch:normal;font-size:15px;font-family:LuzSans-Medium;-inkscape-font-specification:LuzSans-Medium;text-align:center;text-anchor:middle"
       d="m 138.99168,80.303867 q -0.21,-0.105 -0.465,-0.165 -0.24,-0.06 -0.495,-0.06 -0.825,0 -1.2,0.645 -0.36,0.645 -0.36,1.92 l 0,3.435 -1.725,0 0,-7.395 1.725,0 0,1.095 0.03,0 q 0.6,-1.245 2.01,-1.245 0.165,0 0.315,0.03 0.15,0.03 0.315,0.075 l -0.15,1.665 0,0 z" />
    <path
       id="path3506"
       style="font-style:normal;font-variant:normal;font-weight:normal;font-stretch:normal;font-size:15px;font-family:LuzSans-Medium;-inkscape-font-specification:LuzSans-Medium;text-align:center;text-anchor:middle"
       d="m 141.05863,82.703867 q 0.015,0.54 0.195,0.96 0.195,0.42 0.51,0.72 0.315,0.285 0.72,0.435 0.42,0.15 0.885,0.15 0.72,0 1.23,-0.315 0.525,-0.33 0.84,-0.855 l 1.5,0.15 q -0.195,0.555 -0.57,0.99 -0.36,0.435 -0.84,0.735 -0.465,0.3 -1.035,0.45 -0.555,0.15 -1.155,0.15 -0.87,0 -1.605,-0.27 -0.735,-0.285 -1.26,-0.795 -0.51,-0.51 -0.81,-1.215 -0.285,-0.72 -0.285,-1.59 0,-0.855 0.285,-1.575 0.285,-0.72 0.795,-1.245 0.51,-0.525 1.215,-0.81 0.72,-0.3 1.575,-0.3 0.9,0 1.605,0.3 0.72,0.285 1.215,0.84 0.495,0.54 0.75,1.335 0.255,0.78 0.24,1.755 l -6,0 z m 4.35,-1.05 q -0.135,-0.84 -0.66,-1.38 -0.525,-0.54 -1.47,-0.54 -0.915,0 -1.5,0.555 -0.585,0.54 -0.705,1.365 l 4.335,0 0,0 z" />
    <path
       id="path3508"
       style="font-style:normal;font-variant:normal;font-weight:normal;font-stretch:normal;font-size:15px;font-family:LuzSans-Medium;-inkscape-font-specification:LuzSans-Medium;text-align:center;text-anchor:middle"
       d="m 156.24543,82.283867 q 0,0.87 -0.285,1.605 -0.27,0.735 -0.765,1.26 -0.48,0.525 -1.14,0.825 -0.66,0.3 -1.41,0.3 -0.81,0 -1.515,-0.33 -0.69,-0.33 -1.035,-0.945 l -0.03,0 0,1.08 -1.725,0 0,-12.405 1.725,0 0,6.015 0.03,0 q 0.39,-0.57 1.08,-0.885 0.705,-0.33 1.5,-0.33 0.795,0 1.44,0.3 0.66,0.285 1.125,0.81 0.48,0.51 0.735,1.215 0.27,0.69 0.27,1.485 z m -1.62,0.09 q 0,-0.495 -0.165,-0.945 -0.165,-0.45 -0.465,-0.78 -0.3,-0.345 -0.735,-0.54 -0.42,-0.195 -0.945,-0.195 -0.525,0 -0.96,0.195 -0.42,0.195 -0.735,0.525 -0.3,0.33 -0.465,0.78 -0.165,0.435 -0.165,0.915 0,0.495 0.15,0.96 0.15,0.45 0.435,0.81 0.3,0.345 0.72,0.555 0.435,0.195 0.99,0.195 0.525,0 0.96,-0.195 0.435,-0.21 0.735,-0.555 0.315,-0.345 0.48,-0.78 0.165,-0.45 0.165,-0.945 z" />
    <path
       id="path3510"
       style="font-style:normal;font-variant:normal;font-weight:normal;font-stretch:normal;font-size:15px;font-family:LuzSans-Medium;-inkscape-font-specification:LuzSans-Medium;text-align:center;text-anchor:middle"
       d="m 165.12824,82.388867 q 0,0.825 -0.3,1.53 -0.285,0.705 -0.81,1.23 -0.525,0.525 -1.275,0.825 -0.75,0.3 -1.65,0.3 -0.915,0 -1.65,-0.3 -0.735,-0.3 -1.26,-0.825 -0.51,-0.525 -0.795,-1.23 -0.285,-0.705 -0.285,-1.53 0,-0.855 0.285,-1.56 0.3,-0.72 0.825,-1.245 0.525,-0.525 1.275,-0.81 0.75,-0.3 1.65,-0.3 0.93,0 1.665,0.3 0.735,0.3 1.245,0.84 0.525,0.525 0.795,1.245 0.285,0.705 0.285,1.53 z m -1.605,0 q 0,-0.495 -0.165,-0.945 -0.165,-0.45 -0.48,-0.78 -0.3,-0.345 -0.75,-0.54 -0.435,-0.21 -0.99,-0.21 -0.555,0 -1.005,0.21 -0.45,0.195 -0.765,0.54 -0.315,0.33 -0.495,0.78 -0.165,0.45 -0.165,0.945 0,0.495 0.165,0.945 0.165,0.435 0.465,0.78 0.3,0.33 0.75,0.54 0.45,0.195 1.005,0.195 0.57,0 1.02,-0.195 0.45,-0.195 0.765,-0.525 0.315,-0.345 0.48,-0.78 0.165,-0.45 0.165,-0.96 z" />
    <path
       id="path3512"
       style="font-style:normal;font-variant:normal;font-weight:normal;font-stretch:normal;font-size:15px;font-family:LuzSans-Medium;-inkscape-font-specification:LuzSans-Medium;text-align:center;text-anchor:middle"
       d="m 173.9759,82.388867 q 0,0.825 -0.3,1.53 -0.285,0.705 -0.81,1.23 -0.525,0.525 -1.275,0.825 -0.75,0.3 -1.65,0.3 -0.915,0 -1.65,-0.3 -0.735,-0.3 -1.26,-0.825 -0.51,-0.525 -0.795,-1.23 -0.285,-0.705 -0.285,-1.53 0,-0.855 0.285,-1.56 0.3,-0.72 0.825,-1.245 0.525,-0.525 1.275,-0.81 0.75,-0.3 1.65,-0.3 0.93,0 1.665,0.3 0.735,0.3 1.245,0.84 0.525,0.525 0.795,1.245 0.285,0.705 0.285,1.53 z m -1.605,0 q 0,-0.495 -0.165,-0.945 -0.165,-0.45 -0.48,-0.78 -0.3,-0.345 -0.75,-0.54 -0.435,-0.21 -0.99,-0.21 -0.555,0 -1.005,0.21 -0.45,0.195 -0.765,0.54 -0.315,0.33 -0.495,0.78 -0.165,0.45 -0.165,0.945 0,0.495 0.165,0.945 0.165,0.435 0.465,0.78 0.3,0.33 0.75,0.54 0.45,0.195 1.005,0.195 0.57,0 1.02,-0.195 0.45,-0.195 0.765,-0.525 0.315,-0.345 0.48,-0.78 0.165,-0.45 0.165,-0.96 z" />
    <path
       id="path3514"
       style="font-style:normal;font-variant:normal;font-weight:normal;font-stretch:normal;font-size:15px;font-family:LuzSans-Medium;-inkscape-font-specification:LuzSans-Medium;text-align:center;text-anchor:middle"
       d="m 177.42355,80.138867 0,5.94 -1.725,0 0,-5.94 -0.825,0 0,-1.455 0.825,0 0,-2.415 1.725,0 0,2.415 1.395,0 0,1.455 -1.395,0 z" />
    <path
       id="path3516"
       style="font-style:normal;font-variant:normal;font-weight:normal;font-stretch:normal;font-size:15px;font-family:LuzSans-Medium;-inkscape-font-specification:LuzSans-Medium;text-align:center;text-anchor:middle"
       d="m 184.86027,83.798867 q 0,0.555 -0.225,1.02 -0.21,0.45 -0.6,0.78 -0.375,0.33 -0.885,0.495 -0.51,0.18 -1.095,0.18 -0.9,0 -1.665,-0.36 -0.75,-0.36 -1.245,-1.005 l 0.84,-1.02 q 0.345,0.45 0.885,0.765 0.555,0.315 1.155,0.315 0.57,0 0.885,-0.3 0.315,-0.3 0.315,-0.72 0,-0.36 -0.27,-0.57 -0.255,-0.21 -0.645,-0.375 -0.39,-0.18 -0.84,-0.345 -0.45,-0.165 -0.84,-0.405 -0.39,-0.24 -0.66,-0.615 -0.255,-0.375 -0.255,-0.96 0,-0.495 0.195,-0.9 0.195,-0.405 0.54,-0.69 0.36,-0.3 0.825,-0.45 0.48,-0.165 1.035,-0.165 0.765,0 1.29,0.225 0.525,0.225 0.96,0.615 l -0.72,1.095 q -0.3,-0.27 -0.66,-0.45 -0.36,-0.195 -0.75,-0.195 -0.495,0 -0.795,0.255 -0.285,0.255 -0.285,0.63 0,0.285 0.255,0.48 0.27,0.18 0.66,0.33 0.39,0.15 0.84,0.315 0.45,0.165 0.84,0.42 0.39,0.24 0.645,0.63 0.27,0.375 0.27,0.975 z" />
    <path
       id="path3518"
       style="font-style:normal;font-variant:normal;font-weight:normal;font-stretch:normal;font-size:15px;font-family:LuzSans-Medium;-inkscape-font-specification:LuzSans-Medium;text-align:center;text-anchor:middle"
       d="m 188.12535,85.268867 q 0,0.42 -0.315,0.735 -0.3,0.3 -0.72,0.3 -0.435,0 -0.735,-0.3 -0.3,-0.315 -0.3,-0.735 0,-0.42 0.3,-0.72 0.3,-0.315 0.735,-0.315 0.42,0 0.72,0.315 0.315,0.3 0.315,0.72 z" />
    <path
       id="path3520"
       style="font-style:normal;font-variant:normal;font-weight:normal;font-stretch:normal;font-size:15px;font-family:LuzSans-Medium;-inkscape-font-specification:LuzSans-Medium;text-align:center;text-anchor:middle"
       d="m -12.601953,95.108867 0,9.720003 -1.815,0 0,-9.720003 -2.685,0 0,-1.59 7.1849999,0 0,1.59 -2.6849999,0 z" />
    <path
       id="path3522"
       style="font-style:normal;font-variant:normal;font-weight:normal;font-stretch:normal;font-size:15px;font-family:LuzSans-Medium;-inkscape-font-specification:LuzSans-Medium;text-align:center;text-anchor:middle"
       d="m -3.7240625,104.82887 0,-4.26 q 0,-0.42 -0.075,-0.780003 -0.06,-0.36 -0.24,-0.615 -0.165,-0.27 -0.465,-0.42 -0.3,-0.15 -0.75,-0.15 -0.435,0 -0.765,0.195 -0.315,0.18 -0.54,0.51 -0.21,0.315 -0.315,0.735003 -0.105,0.42 -0.105,0.885 l 0,3.9 -1.695,0 0,-12.405003 1.695,0 0,6.015 0.03,0 q 0.795,-1.215 2.325,-1.215 1.275,0 1.935,0.795 0.675,0.78 0.675,2.145003 l 0,4.665 -1.71,0 z" />
    <path
       id="path3524"
       style="font-style:normal;font-variant:normal;font-weight:normal;font-stretch:normal;font-size:15px;font-family:LuzSans-Medium;-inkscape-font-specification:LuzSans-Medium;text-align:center;text-anchor:middle"
       d="m 1.8149219,94.898867 q 0,0.39 -0.3,0.675 -0.285,0.285 -0.67500003,0.285 -0.40499999,0 -0.70499999,-0.285 -0.28500001,-0.285 -0.28500001,-0.675 0,-0.405 0.28500001,-0.69 0.3,-0.3 0.70499999,-0.3 0.39000003,0 0.67500003,0.3 0.3,0.285 0.3,0.69 z m -1.84500002,9.930003 0,-7.395003 1.72500002,0 0,7.395003 -1.72500002,0 z" />
    <path
       id="path3526"
       style="font-style:normal;font-variant:normal;font-weight:normal;font-stretch:normal;font-size:15px;font-family:LuzSans-Medium;-inkscape-font-specification:LuzSans-Medium;text-align:center;text-anchor:middle"
       d="m 8.7128125,102.54887 q 0,0.555 -0.225,1.02 -0.21,0.45 -0.6,0.78 -0.375,0.33 -0.885,0.495 -0.51,0.18 -1.095,0.18 -0.9,0 -1.665,-0.36 -0.75,-0.36 -1.245,-1.005 l 0.84,-1.02 q 0.345,0.45 0.885,0.765 0.555,0.315 1.155,0.315 0.57,0 0.885,-0.3 0.315,-0.3 0.315,-0.72 0,-0.36 -0.27,-0.57 -0.255,-0.21 -0.645,-0.375 -0.39,-0.18 -0.84,-0.345 -0.45,-0.165 -0.84,-0.405 -0.39,-0.24 -0.66,-0.615 -0.255,-0.375 -0.255,-0.960003 0,-0.495 0.195,-0.9 0.195,-0.405 0.54,-0.69 0.36,-0.3 0.825,-0.45 0.48,-0.165 1.035,-0.165 0.765,0 1.29,0.225 0.525,0.225 0.96,0.615 l -0.72,1.095 q -0.3,-0.27 -0.66,-0.45 -0.36,-0.195 -0.75,-0.195 -0.495,0 -0.795,0.255 -0.285,0.255 -0.285,0.63 0,0.285 0.255,0.48 0.27,0.180003 0.66,0.330003 0.39,0.15 0.84,0.315 0.45,0.165 0.84,0.42 0.39,0.24 0.645,0.63 0.27,0.375 0.27,0.975 z" />
    <path
       id="path3528"
       style="font-style:normal;font-variant:normal;font-weight:normal;font-stretch:normal;font-size:15px;font-family:LuzSans-Medium;-inkscape-font-specification:LuzSans-Medium;text-align:center;text-anchor:middle"
       d="m 23.196719,104.82887 0,-4.32 q 0,-0.990003 -0.315,-1.440003 -0.3,-0.465 -1.065,-0.465 -0.825,0 -1.17,0.555 -0.345,0.54 -0.345,1.575003 l 0,4.095 -1.71,0 0,-4.17 q 0,-1.050003 -0.3,-1.560003 -0.285,-0.525 -1.11,-0.525 -0.795,0 -1.14,0.585 -0.345,0.585 -0.345,1.755003 l 0,3.915 -1.695,0 0,-7.395003 1.695,0 0,0.93 0.03,0 q 0.735,-1.14 2.1,-1.14 0.735,0 1.335,0.33 0.6,0.33 0.945,1.05 0.345,-0.675 0.96,-1.02 0.615,-0.36 1.38,-0.36 1.275,0 1.86,0.765 0.6,0.765 0.6,2.040003 l 0,4.8 -1.71,0 z" />
    <path
       id="path3530"
       style="font-style:normal;font-variant:normal;font-weight:normal;font-stretch:normal;font-size:15px;font-family:LuzSans-Medium;-inkscape-font-specification:LuzSans-Medium;text-align:center;text-anchor:middle"
       d="m 32.53375,104.82887 0,-1.08 -0.03,0 q -0.315,0.585 -1.035,0.93 -0.72,0.345 -1.53,0.345 -0.735,0 -1.395,-0.285 -0.66,-0.285 -1.14,-0.795 -0.48,-0.525 -0.765,-1.245 -0.285,-0.72 -0.285,-1.59 0,-0.795 0.27,-1.500003 0.27,-0.72 0.75,-1.245 0.495,-0.525 1.155,-0.825 0.675,-0.315 1.47,-0.315 0.795,0 1.455,0.315 0.66,0.315 1.05,0.9 l 0.03,0 0,-1.005 1.695,0 0,7.395003 -1.695,0 z m 0.06,-3.75 q 0,-0.48 -0.165,-0.915 -0.165,-0.450003 -0.465,-0.780003 -0.3,-0.33 -0.735,-0.525 -0.435,-0.195 -0.96,-0.195 -0.54,0 -0.975,0.195 -0.42,0.195 -0.72,0.54 -0.3,0.33 -0.465,0.780003 -0.15,0.45 -0.15,0.945 0,0.495 0.165,0.945 0.165,0.435 0.465,0.78 0.315,0.345 0.75,0.555 0.435,0.195 0.96,0.195 0.54,0 0.96,-0.195 0.435,-0.21 0.72,-0.555 0.3,-0.36 0.45,-0.81 0.165,-0.465 0.165,-0.96 z" />
    <path
       id="path3532"
       style="font-style:normal;font-variant:normal;font-weight:normal;font-stretch:normal;font-size:15px;font-family:LuzSans-Medium;-inkscape-font-specification:LuzSans-Medium;text-align:center;text-anchor:middle"
       d="m 38.131562,108.81887 -1.77,0 2.055,-4.425 -3.495,-6.960003 1.935001,0 2.46,5.220003 0.03,0 2.28,-5.220003 1.830001,0 -5.325001,11.385003 z" />
    <path
       id="path3534"
       style="font-style:normal;font-variant:normal;font-weight:normal;font-stretch:normal;font-size:15px;font-family:LuzSans-Medium;-inkscape-font-specification:LuzSans-Medium;text-align:center;text-anchor:middle"
       d="m 50.231172,98.888867 0,5.940003 -1.725,0 0,-5.940003 -0.825,0 0,-1.455 0.825,0 0,-2.415 1.725,0 0,2.415 1.395,0 0,1.455 -1.395,0 z" />
    <path
       id="path3536"
       style="font-style:normal;font-variant:normal;font-weight:normal;font-stretch:normal;font-size:15px;font-family:LuzSans-Medium;-inkscape-font-specification:LuzSans-Medium;text-align:center;text-anchor:middle"
       d="m 58.256406,104.82887 0,-1.08 -0.03,0 q -0.315,0.585 -1.035,0.93 -0.72,0.345 -1.53,0.345 -0.735,0 -1.395,-0.285 -0.66,-0.285 -1.14,-0.795 -0.48,-0.525 -0.765,-1.245 -0.285,-0.72 -0.285,-1.59 0,-0.795 0.27,-1.500003 0.27,-0.72 0.75,-1.245 0.495,-0.525 1.155,-0.825 0.675,-0.315 1.47,-0.315 0.795,0 1.455,0.315 0.66,0.315 1.05,0.9 l 0.03,0 0,-1.005 1.695,0 0,7.395003 -1.695,0 z m 0.06,-3.75 q 0,-0.48 -0.165,-0.915 -0.165,-0.450003 -0.465,-0.780003 -0.3,-0.33 -0.735,-0.525 -0.435,-0.195 -0.96,-0.195 -0.54,0 -0.975,0.195 -0.42,0.195 -0.72,0.54 -0.3,0.33 -0.465,0.780003 -0.15,0.45 -0.15,0.945 0,0.495 0.165,0.945 0.165,0.435 0.465,0.78 0.315,0.345 0.75,0.555 0.435,0.195 0.96,0.195 0.54,0 0.96,-0.195 0.435,-0.21 0.72,-0.555 0.3,-0.36 0.45,-0.81 0.165,-0.465 0.165,-0.96 z" />
    <path
       id="path3538"
       style="font-style:normal;font-variant:normal;font-weight:normal;font-stretch:normal;font-size:15px;font-family:LuzSans-Medium;-inkscape-font-specification:LuzSans-Medium;text-align:center;text-anchor:middle"
       d="m 66.479219,104.82887 -2.835,-3.375 -0.195,0.18 0,3.195 -1.695,0 0,-12.405003 1.695,0 0,7.905003 2.85,-2.895003 2.07,0 -3.39,3.300003 3.585,4.095 -2.085,0 z" />
    <path
       id="path3540"
       style="font-style:normal;font-variant:normal;font-weight:normal;font-stretch:normal;font-size:15px;font-family:LuzSans-Medium;-inkscape-font-specification:LuzSans-Medium;text-align:center;text-anchor:middle"
       d="m 70.526406,101.45387 q 0.015,0.54 0.195,0.96 0.195,0.42 0.51,0.72 0.315,0.285 0.72,0.435 0.42,0.15 0.885,0.15 0.72,0 1.23,-0.315 0.525,-0.33 0.84,-0.855 l 1.5,0.15 q -0.195,0.555 -0.57,0.99 -0.36,0.435 -0.84,0.735 -0.465,0.3 -1.035,0.45 -0.555,0.15 -1.155,0.15 -0.87,0 -1.605,-0.27 -0.735,-0.285 -1.26,-0.795 -0.51,-0.51 -0.81,-1.215 -0.285,-0.72 -0.285,-1.59 0,-0.855 0.285,-1.575003 0.285,-0.72 0.795,-1.245 0.51,-0.525 1.215,-0.81 0.72,-0.3 1.575,-0.3 0.9,0 1.605,0.3 0.72,0.285 1.215,0.84 0.495,0.54 0.75,1.335 0.255,0.780003 0.24,1.755003 l -6,0 z m 4.35,-1.05 q -0.135,-0.840003 -0.66,-1.380003 -0.525,-0.54 -1.47,-0.54 -0.915,0 -1.5,0.555 -0.585,0.54 -0.705,1.365003 l 4.335,0 0,0 z" />
    <path
       id="path3542"
       style="font-style:normal;font-variant:normal;font-weight:normal;font-stretch:normal;font-size:15px;font-family:LuzSans-Medium;-inkscape-font-specification:LuzSans-Medium;text-align:center;text-anchor:middle"
       d="m 87.436094,104.82887 0,-1.08 -0.03,0 q -0.315,0.585 -1.035,0.93 -0.72,0.345 -1.53,0.345 -0.735,0 -1.395,-0.285 -0.66,-0.285 -1.14,-0.795 -0.48,-0.525 -0.765,-1.245 -0.285,-0.72 -0.285,-1.59 0,-0.795 0.27,-1.500003 0.27,-0.72 0.75,-1.245 0.495,-0.525 1.155,-0.825 0.675,-0.315 1.47,-0.315 0.795,0 1.455,0.315 0.66,0.315 1.05,0.9 l 0.03,0 0,-1.005 1.695,0 0,7.395003 -1.695,0 z m 0.06,-3.75 q 0,-0.48 -0.165,-0.915 -0.165,-0.450003 -0.465,-0.780003 -0.3,-0.33 -0.735,-0.525 -0.435,-0.195 -0.96,-0.195 -0.54,0 -0.975,0.195 -0.42,0.195 -0.72,0.54 -0.3,0.33 -0.465,0.780003 -0.15,0.45 -0.15,0.945 0,0.495 0.165,0.945 0.165,0.435 0.465,0.78 0.315,0.345 0.75,0.555 0.435,0.195 0.96,0.195 0.54,0 0.96,-0.195 0.435,-0.21 0.72,-0.555 0.3,-0.36 0.45,-0.81 0.165,-0.465 0.165,-0.96 z" />
    <path
       id="path3544"
       style="font-style:normal;font-variant:normal;font-weight:normal;font-stretch:normal;font-size:15px;font-family:LuzSans-Medium;-inkscape-font-specification:LuzSans-Medium;text-align:center;text-anchor:middle"
       d="m 104.0268,104.82887 0,-4.32 q 0,-0.990003 -0.315,-1.440003 -0.3,-0.465 -1.065,-0.465 -0.825,0 -1.17,0.555 -0.345,0.54 -0.345,1.575003 l 0,4.095 -1.710003,0 0,-4.17 q 0,-1.050003 -0.3,-1.560003 -0.285,-0.525 -1.11,-0.525 -0.795,0 -1.14,0.585 -0.345,0.585 -0.345,1.755003 l 0,3.915 -1.695,0 0,-7.395003 1.695,0 0,0.93 0.03,0 q 0.735,-1.14 2.1,-1.14 0.735,0 1.335,0.33 0.600003,0.33 0.945003,1.05 0.345,-0.675 0.96,-1.02 0.615,-0.36 1.38,-0.36 1.275,0 1.86,0.765 0.6,0.765 0.6,2.040003 l 0,4.8 -1.71,0 z" />
    <path
       id="path3546"
       style="font-style:normal;font-variant:normal;font-weight:normal;font-stretch:normal;font-size:15px;font-family:LuzSans-Medium;-inkscape-font-specification:LuzSans-Medium;text-align:center;text-anchor:middle"
       d="m 115.10383,101.13887 q 0,0.825 -0.3,1.53 -0.285,0.705 -0.81,1.23 -0.525,0.525 -1.275,0.825 -0.75,0.3 -1.65,0.3 -0.915,0 -1.65,-0.3 -0.735,-0.3 -1.26,-0.825 -0.51,-0.525 -0.795,-1.23 -0.285,-0.705 -0.285,-1.53 0,-0.855 0.285,-1.560003 0.3,-0.72 0.825,-1.245 0.525,-0.525 1.275,-0.81 0.75,-0.3 1.65,-0.3 0.93,0 1.665,0.3 0.735,0.3 1.245,0.84 0.525,0.525 0.795,1.245 0.285,0.705003 0.285,1.530003 z m -1.605,0 q 0,-0.495 -0.165,-0.945 -0.165,-0.450003 -0.48,-0.780003 -0.3,-0.345 -0.75,-0.54 -0.435,-0.21 -0.99,-0.21 -0.555,0 -1.005,0.21 -0.45,0.195 -0.765,0.54 -0.315,0.33 -0.495,0.780003 -0.165,0.45 -0.165,0.945 0,0.495 0.165,0.945 0.165,0.435 0.465,0.78 0.3,0.33 0.75,0.54 0.45,0.195 1.005,0.195 0.57,0 1.02,-0.195 0.45,-0.195 0.765,-0.525 0.315,-0.345 0.48,-0.78 0.165,-0.45 0.165,-0.96 z" />
    <path
       id="path3548"
       style="font-style:normal;font-variant:normal;font-weight:normal;font-stretch:normal;font-size:15px;font-family:LuzSans-Medium;-inkscape-font-specification:LuzSans-Medium;text-align:center;text-anchor:middle"
       d="m 125.70648,104.82887 0,-4.32 q 0,-0.990003 -0.315,-1.440003 -0.3,-0.465 -1.065,-0.465 -0.825,0 -1.17,0.555 -0.345,0.54 -0.345,1.575003 l 0,4.095 -1.71,0 0,-4.17 q 0,-1.050003 -0.3,-1.560003 -0.285,-0.525 -1.11,-0.525 -0.795,0 -1.14,0.585 -0.345,0.585 -0.345,1.755003 l 0,3.915 -1.695,0 0,-7.395003 1.695,0 0,0.93 0.03,0 q 0.735,-1.14 2.1,-1.14 0.735,0 1.335,0.33 0.6,0.33 0.945,1.05 0.345,-0.675 0.96,-1.02 0.615,-0.36 1.38,-0.36 1.275,0 1.86,0.765 0.6,0.765 0.6,2.040003 l 0,4.8 -1.71,0 z" />
    <path
       id="path3550"
       style="font-style:normal;font-variant:normal;font-weight:normal;font-stretch:normal;font-size:15px;font-family:LuzSans-Medium;-inkscape-font-specification:LuzSans-Medium;text-align:center;text-anchor:middle"
       d="m 130.43852,101.45387 q 0.015,0.54 0.195,0.96 0.195,0.42 0.51,0.72 0.315,0.285 0.72,0.435 0.42,0.15 0.885,0.15 0.72,0 1.23,-0.315 0.525,-0.33 0.84,-0.855 l 1.5,0.15 q -0.195,0.555 -0.57,0.99 -0.36,0.435 -0.84,0.735 -0.465,0.3 -1.035,0.45 -0.555,0.15 -1.155,0.15 -0.87,0 -1.605,-0.27 -0.735,-0.285 -1.26,-0.795 -0.51,-0.51 -0.81,-1.215 -0.285,-0.72 -0.285,-1.59 0,-0.855 0.285,-1.575003 0.285,-0.72 0.795,-1.245 0.51,-0.525 1.215,-0.81 0.72,-0.3 1.575,-0.3 0.9,0 1.605,0.3 0.72,0.285 1.215,0.84 0.495,0.54 0.75,1.335 0.255,0.780003 0.24,1.755003 l -6,0 z m 4.35,-1.05 q -0.135,-0.840003 -0.66,-1.380003 -0.525,-0.54 -1.47,-0.54 -0.915,0 -1.5,0.555 -0.585,0.54 -0.705,1.365003 l 4.335,0 0,0 z" />
    <path
       id="path3552"
       style="font-style:normal;font-variant:normal;font-weight:normal;font-stretch:normal;font-size:15px;font-family:LuzSans-Medium;-inkscape-font-specification:LuzSans-Medium;text-align:center;text-anchor:middle"
       d="m 142.65531,104.82887 0,-4.17 q 0,-0.39 -0.045,-0.750003 -0.045,-0.375 -0.21,-0.66 -0.15,-0.3 -0.435,-0.465 -0.285,-0.18 -0.78,-0.18 -0.45,0 -0.78,0.18 -0.315,0.18 -0.54,0.495 -0.21,0.315 -0.315,0.735003 -0.105,0.42 -0.105,0.9 l 0,3.915 -1.725,0 0,-7.395003 1.725,0 0,1.005 0.03,0 q 0.36,-0.585 0.96,-0.9 0.6,-0.315 1.41,-0.315 1.215,0 1.86,0.765 0.66,0.75 0.66,2.145003 l 0,4.695 -1.71,0 z" />
    <path
       id="path3554"
       style="font-style:normal;font-variant:normal;font-weight:normal;font-stretch:normal;font-size:15px;font-family:LuzSans-Medium;-inkscape-font-specification:LuzSans-Medium;text-align:center;text-anchor:middle"
       d="m 148.25852,98.888867 0,5.940003 -1.725,0 0,-5.940003 -0.825,0 0,-1.455 0.825,0 0,-2.415 1.725,0 0,2.415 1.395,0 0,1.455 -1.395,0 z" />
    <path
       id="path3556"
       style="font-style:normal;font-variant:normal;font-weight:normal;font-stretch:normal;font-size:15px;font-family:LuzSans-Medium;-inkscape-font-specification:LuzSans-Medium;text-align:center;text-anchor:middle"
       d="m 152.5443,104.01887 q 0,0.42 -0.315,0.735 -0.3,0.3 -0.72,0.3 -0.435,0 -0.735,-0.3 -0.3,-0.315 -0.3,-0.735 0,-0.42 0.3,-0.72 0.3,-0.315 0.735,-0.315 0.42,0 0.72,0.315 0.315,0.3 0.315,0.72 z" />
    <path
       id="path3558"
       style="font-style:normal;font-variant:normal;font-weight:normal;font-stretch:normal;font-size:15px;font-family:LuzSans-Medium;-inkscape-font-specification:LuzSans-Medium;text-align:center;text-anchor:middle"
       d="m 157.26109,104.01887 q 0,0.42 -0.315,0.735 -0.3,0.3 -0.72,0.3 -0.435,0 -0.735,-0.3 -0.3,-0.315 -0.3,-0.735 0,-0.42 0.3,-0.72 0.3,-0.315 0.735,-0.315 0.42,0 0.72,0.315 0.315,0.3 0.315,0.72 z" />
    <path
       id="path3560"
       style="font-style:normal;font-variant:normal;font-weight:normal;font-stretch:normal;font-size:15px;font-family:LuzSans-Medium;-inkscape-font-specification:LuzSans-Medium;text-align:center;text-anchor:middle"
       d="m 161.97789,104.01887 q 0,0.42 -0.315,0.735 -0.3,0.3 -0.72,0.3 -0.435,0 -0.735,-0.3 -0.3,-0.315 -0.3,-0.735 0,-0.42 0.3,-0.72 0.3,-0.315 0.735,-0.315 0.42,0 0.72,0.315 0.315,0.3 0.315,0.72 z" />
  </g>
</svg>
